<?xml version="1.0" encoding="UTF-8"?>
<svg width="1104px" height="764px" viewBox="0 0 1104 764" version="1.1" xmlns="http://www.w3.org/2000/svg" xmlns:xlink="http://www.w3.org/1999/xlink">
    <title>404 Illustration</title>
    <defs>
        <path d="M4.04356062,95.1329712 C4.04356062,95.1329712 44.5667133,114.407977 109.434684,96.5854994 C110.548969,96.2793495 111.79076,95.6793187 113.160058,94.7854071 C110.344466,88.0072529 108.663242,83.3787017 108.116386,80.8997536 C105.889938,70.8070578 106.059264,64.507664 103.20174,58.0011454 C101.354938,53.7960168 101.093233,46.8221114 99.4346583,40.1949921 C98.5397358,36.6191765 96.7620076,30.9814352 94.1014738,23.2817682 C91.3770693,16.7815404 89.5063325,12.4738845 88.4892634,10.3588005 C86.9317493,7.11981386 87.1426296,4.07962428 84.804641,4.25461837 C72.164406,5.2007164 58.1032295,12.37304 42.6211115,25.7715892 C6.64358644,56.9072928 4.04356062,95.1329712 4.04356062,95.1329712 Z" id="path-1"></path>
    </defs>
    <g id="Page-1" stroke="none" stroke-width="1" fill="none" fill-rule="evenodd">
        <g id="5" transform="translate(-165.000000, -113.000000)">
            <g id="Cosmos" transform="translate(165.000000, 113.430663)">
                <path d="M522.23723,242.126887 C522.23723,238.604576 521.005712,205.8222 518.542677,143.779758 C517.926198,128.251007 506.24161,115.410208 490.839728,113.335553 C489.806996,113.196442 489.29063,113.126887 489.29063,113.126887 C489.29063,113.126887 489.29063,113.126887 489.29063,113.126887 C470.876063,113.126887 455.462848,127.091672 453.651455,145.416931 L444.404494,238.965382 L444.404494,238.965382" id="Path-431" fill="#eeeeee" transform="translate(483.320862, 177.626887) rotate(4.000000) translate(-483.320862, -177.626887) "></path>
                <path d="M489.520069,113.844963 L491.019071,114.046881 C506.059971,116.072912 517.470702,128.612755 518.072732,143.777551 C520.534089,205.77772 521.766694,238.589055 521.766694,242.094928 C521.766694,242.509142 522.102481,242.844928 522.516694,242.844928 C522.930908,242.844928 523.266694,242.509142 523.266694,242.094928 C523.266694,238.55618 522.036265,205.802763 519.571552,143.718049 C518.940623,127.825343 506.982178,114.683587 491.219314,112.560307 L489.670217,112.351641 L489.570095,112.344928 C470.769886,112.344928 455.033884,126.602166 453.184557,145.311197 L443.937596,238.859648 C443.896851,239.271852 444.197979,239.639041 444.610183,239.679786 C445.022388,239.720531 445.389576,239.419403 445.430321,239.007199 L454.677283,145.458748 C456.4491,127.533857 471.513262,113.870227 489.520069,113.844963 Z" id="Path-431" fill="#F56843" fill-rule="nonzero" transform="translate(483.600299, 177.594928) rotate(4.000000) translate(-483.600299, -177.594928) "></path>
                <path d="M499.641546,236.527767 L491.594678,173.9672 C490.819988,167.944357 495.074457,162.433868 501.0973,161.659178 C501.562472,161.599346 502.030996,161.569337 502.5,161.569337 C509.955922,161.569337 516.56628,166.364073 518.881483,173.451428 L539.5,236.569337 L539.5,236.569337 L499.641546,236.527767 Z" id="Path-432" fill="#eeeeee" transform="translate(514.750000, 199.069337) scale(-1, 1) translate(-514.750000, -199.069337) "></path>
                <path d="M498.782311,236.819337 C498.405385,236.818944 498.087307,236.538863 498.039221,236.165018 L489.992353,173.604451 C489.16482,167.170779 493.709494,161.28441 500.143166,160.456877 C500.640068,160.392963 501.140551,160.360908 501.641546,160.360908 C509.421952,160.360908 516.319994,165.364311 518.735955,172.76011 L539.354472,235.878019 C539.512946,236.363142 539.151115,236.860908 538.640764,236.860908 L498.782311,236.819337 Z M499.442891,235.320025 L537.607191,235.359829 L517.310104,173.225888 C515.095659,166.446975 508.772985,161.860908 501.641546,161.860908 C501.204534,161.860908 500.767969,161.888869 500.334527,161.944621 C494.722514,162.666467 490.75825,167.801076 491.480096,173.41309 L499.442891,235.320025 Z" id="Path-432" fill="#F56843" fill-rule="nonzero" transform="translate(514.643600, 198.610908) scale(-1, 1) translate(-514.643600, -198.610908) "></path>
                <path d="M331.5,390.069337 L407.872133,365.174554 C416.528296,362.352931 422.842571,354.876287 424.175508,345.869956 L440.5,235.569337 L440.5,235.569337 L529,235.569337 L513.341099,375.716503 C510.582845,400.402878 497.285288,422.690881 476.87131,436.843429 L390,497.069337 L390,497.069337 L331.5,390.069337 Z" id="Path-430" fill="#FFD1D1"></path>
                <path d="M515,363.069337 C497.333333,372.736004 484.5,383.736004 476.5,396.069337 C468.5,408.402671 461.666667,426.902671 456,451.569337 C460.893092,448.000574 465.059759,445.000574 468.5,442.569337 C482.585924,432.614737 493.413102,423.559582 500,413.069337 C509,398.736004 514,382.069337 515,363.069337 Z" id="Path-448" fill="#FFAFAF"></path>
                <path d="M529.141546,234.860908 C529.588739,234.860908 529.936565,235.249761 529.886908,235.694188 L523.087484,296.561542 C523.202956,296.707001 523.264928,296.895334 523.246988,297.094912 C523.228005,297.306098 523.123224,297.488938 522.970119,297.612138 L514.237634,375.755195 C511.44971,400.707115 497.988079,423.227358 477.33065,437.497658 L390.926281,497.186414 C390.649119,497.37788 390.278305,497.361063 390.019612,497.145295 C378.128673,487.22744 368.233288,474.648562 360.334184,459.414575 C352.454943,444.218895 343.607611,420.681654 333.783239,388.79014 C333.662152,388.397072 333.88022,387.979814 334.272061,387.854814 L407.657127,364.444328 C412.184705,362.99999 416.060555,360.242881 418.883547,356.64495 C418.884977,356.64007 418.887706,356.636187 418.890478,356.632321 L418.923477,356.593914 C421.349129,353.484617 422.990526,349.75179 423.590484,345.698025 L439.899628,235.501104 C439.954062,235.133306 440.269742,234.860908 440.641546,234.860908 L529.141546,234.860908 Z M358.916808,381.566908 L335.435609,389.058108 C345.148279,420.510608 353.894597,443.736749 361.665816,458.724099 C369.378473,473.598509 379.004293,485.897711 390.543975,495.627404 L412.563808,480.415908 L358.916808,381.566908 Z M433.383808,289.765908 L425.074321,345.917632 C424.474181,349.972629 422.895125,353.725954 420.564315,356.91034 L472.937016,394.459815 C473.273646,394.701172 473.350879,395.169723 473.109522,395.506353 C472.890106,395.81238 472.482927,395.90403 472.157793,395.736829 L472.062984,395.678859 L419.642217,358.093283 C416.677794,361.667753 412.711128,364.406533 408.113006,365.873374 L360.371808,381.102908 L413.804808,479.557908 L476.478087,436.263504 C496.778327,422.239953 510.007192,400.109109 512.74691,375.588634 L521.450808,297.685908 L433.432855,289.774755 L433.383808,289.765908 Z M528.303081,236.360908 L441.288716,236.360908 L433.603808,288.282908 L521.617808,296.194908 L528.303081,236.360908 Z" id="Combined-Shape" fill="#F56843" fill-rule="nonzero"></path>
                <path d="M194,405.569337 C194,405.569337 170.666667,417.736004 124,442.069337 L143.858454,478.527767 L204,438.027767 C197.333333,416.388814 194,405.569337 194,405.569337 Z" id="Path-437" fill="#FFAFAF"></path>
                <path d="M619.5,640.069337 L624,653.069337 L686,669.069337 L688.5,673.569337 C687.935845,676.875151 687.269178,679.208484 686.5,680.569337 C685.730822,681.93019 684.230822,683.43019 682,685.069337 L682,685.069337 L552.5,715.569337 C549.820985,715.83772 547.654318,715.504387 546,714.569337 C544.345682,713.634288 542.679015,711.800954 541,709.069337 L541,709.069337 L524.5,675.069337 L619.5,640.069337 Z M687.5,402.069337 C689.489622,401.593865 690.989622,401.593865 692,402.069337 C693.010378,402.544809 694.343711,403.878142 696,406.069337 L696,406.069337 L696,546.069337 C694.899247,548.716858 693.899247,550.550191 693,551.569337 C692.100753,552.588483 690.600753,553.588483 688.5,554.569337 L688.5,554.569337 L658,571.069337 L643.5,453.069337 L651,449.569337 L682,403.569337 Z" id="Combined-Shape" fill="#eeeeee"></path>
                <path d="M193.294784,404.945884 L123.294784,441.445884 C122.922789,441.639853 122.782238,442.101236 122.982913,442.469657 L142.841366,478.928087 C143.052785,479.316235 143.552311,479.438314 143.918925,479.191432 L204.060472,438.691432 C204.334655,438.506794 204.455627,438.164419 204.358301,437.848515 L194.358301,405.390085 C194.220356,404.942337 193.710217,404.729266 193.294784,404.945884 Z M202.760894,437.758175 L143.76451,477.48701 L124.665487,442.422831 L193.189904,406.692242 L202.760894,437.758175 Z" id="Path-437" fill="#F56843" fill-rule="nonzero"></path>
                <path d="M408.5,529.569337 L408.5,531.110908 L340,398.569337 L243,439.569337 C244.807912,498.764126 253.094063,538.09746 267.858454,557.569337 C282.622844,577.041215 308.836693,583.207881 346.5,576.069337 L401,576.069337 L408.5,529.569337 Z" id="Path-427" fill="#FFD1D1"></path>
                <path d="M409.391544,529.569337 L409.391544,531.110908 C409.391544,531.399736 409.249033,531.61708 409.050838,531.741826 L401.881977,576.188762 C401.823361,576.55218 401.509661,576.819337 401.141546,576.819337 L346.711929,576.819337 C308.833778,583.984895 282.358154,577.746775 267.402373,558.022483 C252.516682,538.39063 244.204253,498.93256 242.391217,439.592233 C242.382441,439.282651 242.56426,438.999099 242.849549,438.878513 L339.849549,397.878513 C340.21044,397.725972 340.627936,397.876924 340.807824,398.224992 L408.332286,528.87898 C408.775674,528.693172 409.391544,528.944347 409.391544,529.569337 Z M409.197858,530.823396 L409.231849,530.619557 L409.118324,530.399895 C409.185824,530.530502 409.213313,530.677787 409.197858,530.823396 Z M339.794035,399.530469 L243.907061,440.060015 C245.742657,498.823089 253.997031,537.860332 268.597627,557.116191 C283.16151,576.323631 309.090418,582.423267 346.501881,575.332456 L346.641546,575.319337 L400.502821,575.319337 L407.672243,530.868924 L339.794035,399.530469 Z" id="Path-427" fill="#F56843" fill-rule="nonzero"></path>
                <path d="M390.5,497.069337 L395.5,506.569337 C380.135579,518.689193 367.968913,527.189193 359,532.069337 C350.031087,536.949481 340.197754,541.449481 329.5,545.569337 L323.5,535.069337 C333.251259,530.859037 342.584592,526.19237 351.5,521.069337 C360.415408,515.946304 373.415408,507.946304 390.5,497.069337 Z" id="Path-465" fill="#FFAFAF"></path>
                <polyline id="Path-426" fill="#FFAFAF" points="420 700.569337 657 572.069337 644 453.569337 409 569.069337"></polyline>
                <path d="M390.080799,495.947428 C372.501579,507.796801 358.850214,516.453765 349.132531,521.915528 C339.433473,527.366823 330.309891,531.513906 321.763212,534.357697 C321.370184,534.488472 321.157586,534.913098 321.28836,535.306126 C321.419135,535.699153 321.843761,535.911752 322.236788,535.780977 C330.879288,532.905303 340.089039,528.719052 349.867469,523.223146 C359.627274,517.737709 373.309242,509.061339 390.919201,497.191246 C391.262672,496.959728 391.353427,496.493607 391.121909,496.150136 C390.89039,495.806665 390.42427,495.71591 390.080799,495.947428 Z" id="Path-456" fill="#F56843" fill-rule="nonzero"></path>
                <path d="M395.405281,505.97173 C379.084678,518.347838 364.829326,527.827358 352.643564,534.409448 C340.511053,540.962776 332.239062,544.437012 327.933154,544.822322 C327.520589,544.85924 327.216067,545.223618 327.252985,545.636183 C327.289903,546.048748 327.654281,546.35327 328.066846,546.316352 C332.64757,545.90645 341.042246,542.380686 353.356436,535.729226 C365.617375,529.106529 379.934325,519.586049 396.311626,507.166944 C396.641676,506.916664 396.706341,506.446214 396.456061,506.116164 C396.20578,505.786115 395.73533,505.72145 395.405281,505.97173 Z" id="Path-457" fill="#F56843" fill-rule="nonzero"></path>
                <path d="M690.037013,400.79998 C693.840494,400.794035 696.943242,403.809598 697.074005,407.582506 L697.078288,407.819278 L697.288207,542.123864 C697.297232,547.898032 694.419025,553.581561 688.893603,554.978106 L688.891469,555.080089 C688.888066,555.317491 688.772694,555.537085 688.584082,555.674881 L688.498877,555.728742 L419.998877,701.228742 C419.634698,701.42609 419.17949,701.290847 418.982142,700.926668 C418.801239,700.592837 418.899805,700.182517 419.198,699.96444 L419.284215,699.909933 L656.447722,571.390755 C656.42175,571.327505 656.404061,571.259617 656.396134,571.188275 L656.396134,571.188275 L643.399379,454.226971 L408.973051,569.742096 C408.601496,569.925181 408.151872,569.772396 407.968787,569.400842 C407.80096,569.06025 407.915356,568.654058 408.221779,568.447703 L408.310042,568.396578 L649.63217,449.484225 L680.502446,403.972535 C681.588889,402.370805 683.408244,401.423107 685.343477,401.449692 C686.030041,401.459786 686.686772,401.589765 687.294026,401.81941 C687.332249,401.751612 687.401601,401.667736 687.5,401.569337 C687.833333,401.236004 688.223082,401.025056 688.669247,400.936495 C689.119615,400.846421 689.577726,400.800698 690.037013,400.79998 Z M685.321973,402.950699 C683.97105,402.93133 682.696523,403.555059 681.882595,404.621753 L681.74382,404.814551 L650.762233,450.490345 C650.707518,450.571011 650.637786,450.639976 650.557158,450.693651 L650.473051,450.742096 L644.688303,453.592009 C644.795687,453.706184 644.868318,453.854854 644.886959,454.022627 L644.886959,454.022627 L657.843379,570.633971 L687.397922,554.619265 L689.51061,407.261188 C689.544259,404.914219 687.668942,402.984347 685.321973,402.950699 Z M690.039357,402.299978 C689.678065,402.300543 689.317698,402.336511 688.963421,402.407366 C688.918965,402.518049 688.8764,402.614901 688.835725,402.697923 C690.119328,403.716481 690.955075,405.271986 691.0094,407.019213 L691.011647,407.282692 L688.916926,553.415321 C693.421864,552.048632 695.700006,547.276812 695.785715,542.435304 L695.788209,542.126209 L695.578289,407.821623 C695.573516,404.767329 693.093651,402.295204 690.039357,402.299978 Z" id="Combined-Shape" fill="#F56843" fill-rule="nonzero"></path>
                <path d="M231,553.605451 L238.641546,595.105451 L295.635582,695.703357 C310.631954,722.172857 342.59731,733.879336 371.141546,723.355451 L391.117541,715.990564 C410.335715,708.905076 426.914585,696.089005 438.612461,679.275258 L490.239959,605.069337 L490.239959,605.069337 L524.5,675.069337 L619.5,640.069337 L552.714492,482.121815 C545.396749,464.815377 528.431494,453.569337 509.641546,453.569337 C489.788132,453.569337 470.743307,461.434716 456.67559,475.443906 L367.141546,564.605451 L367.141546,564.605451" id="Path-425" fill="#FFD1D1"></path>
                <path d="M453,479.069337 C469,491.402671 485.666667,500.236004 503,505.569337 C520.333333,510.902671 539.5,509.736004 560.5,502.069337 C555.812662,486.540208 550.645996,475.706874 545,469.569337 C538.273875,462.257635 525.73156,455.748273 518.5,454.069337 C509.010731,451.866234 491.485265,454.415293 477.5,461.069337 C470.771929,464.270484 462.605262,470.270484 453,479.069337 Z" id="Path-452" fill="#FFAFAF"></path>
                <path d="M509.641546,452.783223 C528.540029,452.783223 545.619516,463.98717 553.162296,481.275687 L553.387938,481.801439 L619.939603,639.461583 C620.056401,639.545904 620.150212,639.664721 620.203757,639.810058 C620.248755,639.932194 620.259962,640.058525 620.242112,640.178798 L625.187267,651.89747 L683.928124,666.728133 C686.027379,667.258145 687.650943,668.922448 688.128777,671.034191 C688.198598,671.342758 688.242182,671.651144 688.261,671.957015 L688.530571,671.890688 L688.541801,671.936871 C690.099062,678.396545 686.124872,684.895554 679.665198,686.452815 L679.665198,686.452815 L554.76005,716.564237 C549.123194,717.923138 543.295446,715.326772 540.523288,710.272586 C540.323298,710.242041 540.141131,710.129371 540.0236,709.958334 L539.966015,709.85904 L490.122263,606.515627 L439.228116,679.667476 C427.601771,696.378409 411.189835,709.169804 392.160481,716.365584 L391.376984,716.658147 L371.40099,724.023034 C342.800874,734.567521 310.80722,723.060863 295.44349,696.836132 L294.983033,696.036946 L237.988998,595.43904 C237.961546,595.390586 237.939619,595.339301 237.92357,595.286153 L237.903946,595.205154 L230.2624,553.705154 C230.18739,553.297789 230.456818,552.906747 230.864183,552.831737 C231.237601,552.762978 231.597303,552.983642 231.712437,553.334672 L231.7376,553.43352 L239.356296,594.809422 L296.28813,695.297539 C310.955217,721.185832 342.052726,732.779654 370.035125,722.920963 L370.882103,722.615641 L390.858097,715.250754 C409.670847,708.31474 425.935363,695.84588 437.516954,679.494368 L437.996805,678.810813 L489.624304,604.604891 C489.930267,604.165119 490.572646,604.185184 490.859676,604.610162 L490.915491,604.707406 L524.470868,674.280223 L618.398868,639.675223 L562.0317,506.136967 C528.613446,522.426888 491.252117,514.567861 450.04087,482.66238 L450.272868,482.841223 L367.67077,565.100772 C367.403949,565.366483 366.987236,565.38982 366.694079,565.171354 L366.610112,565.098561 C366.344401,564.83174 366.321064,564.415026 366.53953,564.12187 L366.612323,564.037903 L456.146367,474.876358 C470.354645,460.727192 489.589762,452.783223 509.641546,452.783223 Z M687.359372,675.410262 L687.266617,675.54937 C686.514702,676.649243 685.381053,677.491965 684.003755,677.858685 L683.789554,677.91141 L542.083643,709.976218 C544.61797,714.15778 549.59216,716.267111 554.408509,715.106013 L554.408509,715.106013 L679.313658,684.994591 C683.919271,683.884296 687.081457,679.904114 687.359372,675.410262 Z M618.982868,641.058223 L525.125868,675.637223 L541.057906,708.670051 L683.458511,676.448396 C685.747846,675.930378 687.183781,673.654568 686.665762,671.365234 C686.328635,669.875329 685.219899,668.686757 683.770291,668.241065 L683.560932,668.182496 L624.457951,653.260404 C624.262471,653.21105 624.096542,653.08554 623.99552,652.914223 L623.950582,652.824887 L618.982868,641.058223 Z M509.641546,454.283223 C490.212423,454.283223 471.565513,461.892036 457.687007,475.463391 L457.204814,475.939227 L451.346556,481.775614 C492.316502,513.36234 529.224339,520.868642 562.16459,504.398517 L561.446868,504.751223 L552.006008,482.384766 C544.888839,465.523854 528.460728,454.505226 510.19559,454.286539 L509.641546,454.283223 Z" id="Combined-Shape" fill="#F56843" fill-rule="nonzero"></path>
                <path d="M280,388.569337 L92.9829058,508.002816 C50.4434541,535.169502 34.8177092,589.778545 56.5481834,635.335326 L69.9595728,663.451589 C93.7369394,713.299571 153.422077,734.43398 203.270059,710.656613 C205.932077,709.386837 208.536617,707.999914 211.076039,706.499912 L296.630875,655.963845 C312.564021,646.552354 325.573191,632.904343 334.210639,616.538653 L335.25,614.569337 C344.20116,597.609245 344.481314,577.386497 336.00341,560.184952 L315,517.569337 L315,517.569337 C283.8243,540.813213 266.990966,556.813213 264.5,565.569337 C262.278788,573.377232 236.858785,589.462975 188.23999,613.826565 C177.695196,619.110691 164.860058,615.408037 158.75,605.319337 C153.842241,597.215827 156.432908,586.66811 164.536418,581.76035 C165.462745,581.199335 166.440118,580.727302 167.455448,580.350574 L258.5,546.569337 L258.5,546.569337" id="Path-424" fill="#FFD1D1"></path>
                <path d="M89.1145619,612.33073 C84.0124925,617.73618 69.4150861,637.357332 64.9831608,644.267002 C60.3204541,651.536475 56.1494807,658.868923 52.636378,667.392896 C49.1574306,675.833996 46.6801322,686.068302 46.6200005,699.638875 C46.5998811,704.179443 46.6366591,709.024118 46.7303346,714.172898 C68.7308265,699.467944 83.4769794,688.026262 90.9687932,679.847852 C97.0423417,673.217687 103.109277,666.5304 106.913551,659.378004 C116.467104,641.416419 122.916787,616.966727 126.262599,586.028926 C115.10276,589.148929 102.72008,597.916197 89.1145619,612.33073 Z" id="Path-448-Copy" fill="#FFAFAF" transform="translate(86.438632, 650.100912) rotate(-63.000000) translate(-86.438632, -650.100912) "></path>
                <path d="M305.152044,536.945121 L294.022949,543.738004 C279.193095,564.79751 270.300859,577.630486 267.346243,582.236933 C264.237771,587.083249 255.941379,597.785611 242.457065,614.344021 C254.313732,619.159132 265.516383,622.055598 276.065016,623.033418 C286.61365,624.011238 296.221676,623.043846 304.889093,620.131243 C316.186492,615.871365 326.701778,606.772472 336.434952,592.834562 C341.289765,585.882467 349.779069,575.010048 361.902863,560.217304 C341.758922,546.061331 326.408837,536.860642 315.852609,532.615237 C305.296381,528.369832 301.729526,529.813126 305.152044,536.945121 Z" id="Path-448-Copy-2" fill="#eeeeee" transform="translate(302.179964, 576.820542) rotate(-63.000000) translate(-302.179964, -576.820542) "></path>
                <path d="M334.972225,560.058083 C343.343871,577.044031 343.067228,597.013316 334.228258,613.760839 L333.188897,615.730154 C324.61623,631.973102 311.704628,645.518753 295.890981,654.859658 L210.030143,705.576476 C207.602265,707.01059 205.114372,708.340585 202.573237,709.562841 C153.175972,733.322332 93.8707031,712.538811 70.1112114,663.141545 L57.1965028,636.291169 C35.6042666,591.399745 50.6335163,537.457411 92.3279935,510.198739 L277.410404,389.197086 C277.7571,388.970426 277.854409,388.505629 277.627749,388.158933 C277.401089,387.812237 276.936292,387.714929 276.589596,387.941589 L91.5071849,508.943242 C49.1825645,536.613884 33.9261725,591.371467 55.8447397,636.941351 L68.7594483,663.791727 C92.8780255,713.935551 153.079596,735.033181 203.223419,710.914604 C205.802959,709.673876 208.328452,708.323781 210.793023,706.867992 L296.653861,656.151174 C312.706506,646.669097 325.813246,632.918725 334.515474,616.430292 L335.554835,614.460977 C344.618185,597.288314 344.90185,576.812103 336.317688,559.394962 L315.314278,516.779347 C315.13586,516.417341 314.702965,516.261432 314.334702,516.426549 C289.467271,527.576324 274.208582,535.920321 268.475316,541.533421 C265.854017,544.099779 264.400089,547.343426 263.805247,551.276497 C263.434346,553.72888 263.407611,555.84692 263.558983,559.636152 C263.691956,562.964804 263.681781,563.986082 263.420169,564.905688 C261.290625,572.391358 235.839475,588.496811 187.545529,612.697614 C177.350268,617.806585 164.940587,614.226661 159.033066,604.472382 C154.412429,596.842958 156.851533,586.912322 164.480956,582.291685 C165.420506,581.722662 166.415656,581.250975 167.450951,580.88395 L262.250603,547.276231 C262.641009,547.137826 262.845298,546.709141 262.706893,546.318734 C262.568489,545.928328 262.139803,545.72404 261.749397,545.862444 L166.949745,579.470163 C165.818295,579.871277 164.730718,580.386773 163.703904,581.008646 C155.365878,586.058437 152.700236,596.911407 157.750027,605.249434 C164.062618,615.672549 177.32321,619.497942 188.217543,614.038657 C237.161189,589.51228 262.550045,573.446247 264.862924,565.316127 C265.189215,564.169164 265.199604,563.126313 265.057787,559.576278 C264.910044,555.877875 264.935874,553.831569 265.288381,551.500808 C265.837832,547.86786 267.158232,544.922107 269.524684,542.605254 C275.033582,537.21182 289.981941,529.016247 314.288659,518.091427 L334.972225,560.058083 Z" id="Path-424" fill="#F56843" fill-rule="nonzero"></path>
                <g id="Path-423" transform="translate(168.141546, 242.110908)">
                    <path d="M172,156.358219 C154.528571,117.543462 144.028571,91.7573894 140.5,79 C129.062383,37.6478156 121.080313,1.57768447 78.3571429,1.57768447 C35.6339726,1.57768447 1,36.2123263 1,78.9363223 C1,91.1058355 11.5,130.127061 32.5,196 C63.471544,195.875729 88.5286869,194.333456 107.671429,191.373181 C126.81417,188.412906 148.257027,176.741252 172,156.358219 Z" id="Mask" stroke="#F56843" stroke-width="1.5" fill="#FFD1D1" stroke-linecap="round" stroke-linejoin="round"></path>
                    <path d="M171.858454,156.238964 C154.387025,117.424207 143.887025,91.6381344 140.358454,78.880745 C128.920836,37.5285606 120.938767,1.45842948 78.2155964,1.45842948 C35.4924261,1.45842948 0.858453553,36.0930714 0.858453553,78.8170673 C0.858453553,90.9865805 11.3584536,130.007806 32.3584536,195.880745 C63.3299975,195.756474 88.3871404,194.214201 107.529882,191.253926 C126.672624,188.293651 148.115481,176.621997 171.858454,156.238964 Z" id="Mask" fill="#FFD1D1"></path>
                    <path d="M171.858454,156.238964 C154.387025,117.424207 143.887025,91.6381344 140.358454,78.880745 C128.920836,37.5285606 120.938767,1.45842948 78.2155964,1.45842948 C35.4924261,1.45842948 0.858453553,36.0930714 0.858453553,78.8170673 C0.858453553,90.9865805 11.3584536,130.007806 32.3584536,195.880745 C63.3299975,195.756474 88.3871404,194.214201 107.529882,191.253926 C126.672624,188.293651 148.115481,176.621997 171.858454,156.238964 Z" id="Mask" stroke="#F56843" stroke-width="1.5" stroke-linecap="round" stroke-linejoin="round"></path>
                    <path d="M172.542363,155.93112 C155.087098,117.152272 144.596053,91.3881908 141.081313,78.6808091 C140.621106,77.0169528 138.582474,69.5905357 138.033585,67.6098759 C131.303429,43.324153 126.646595,30.9233988 119.14933,20.5039775 C109.681711,7.34623243 96.7307043,0.708429481 78.2155964,0.708429481 C35.0782093,0.708429481 0.108453553,35.678861 0.108453553,78.8170673 C0.108453553,91.1027511 10.6092913,130.12709 31.643886,196.108546 C31.7433787,196.420635 32.0339009,196.630745 32.3614628,196.630745 C63.3673481,196.50633 88.4597539,194.961887 107.644501,191.995116 C126.946018,189.010288 148.507036,177.274317 172.346988,156.808028 C172.599347,156.591381 172.67888,156.234409 172.542363,155.93112 Z M107.415263,190.512736 C88.427927,193.448979 63.5895457,194.988281 32.9058369,195.12839 C12.0518004,129.68101 1.60845355,90.8383283 1.60845355,78.8170673 C1.60845355,36.5072817 35.9066429,2.20842948 78.2155964,2.20842948 C96.2480683,2.20842948 108.745981,8.61400738 117.931767,21.3800715 C125.290864,31.6074715 129.904847,43.8941173 136.588065,68.0104642 C137.136335,69.9888911 139.174835,77.4148272 139.635594,79.080681 C143.16241,91.8317244 153.594607,117.469279 170.944109,156.034727 C147.467854,176.108794 126.28521,187.594647 107.415263,190.512736 Z" id="Mask" fill="#F56843" fill-rule="nonzero"></path>
                    <g id="Path-469" transform="translate(35.000000, 15.577684)">
                        <mask id="mask-2" fill="white">
                            <use xlink:href="#path-1"></use>
                        </mask>
                        <use id="Mask" fill="#F56843" transform="translate(58.601809, 54.197105) rotate(-4.000000) translate(-58.601809, -54.197105) " xlink:href="#path-1"></use>
                        <path d="M55.8584536,11.880745 C59.5251202,21.5474117 63.6917869,33.5474117 68.3584536,47.880745 C75.3584536,69.380745 64.2747499,72.7708048 50.8584536,58.380745 C41.914256,48.7873718 36.0809227,40.6207052 33.3584536,33.880745 C35.6286461,30.5424826 38.2953128,27.375816 41.3584536,24.380745 C44.4215943,21.385674 49.2549277,17.2190074 55.8584536,11.880745 Z M73.5182234,33.1381468 C75.9675994,33.3094239 77.3219852,43.7505675 78.0914746,45.8833745 L78.1328697,45.9913581 L78.1328697,45.9913581 C78.5575735,47.0267697 78.0624969,48.2104272 77.0270852,48.6351309 C76.0811997,49.0231129 74.9944483,48.6457125 74.492627,47.7549798 C71.5707271,42.5684822 70.1204571,39.4553256 70.1418706,38.4154797 C70.1960022,35.7868293 71.0243132,32.9637556 73.5182234,33.1381468 Z" id="Combined-Shape" fill="#eeeeee" mask="url(#mask-2)"></path>
                    </g>
                </g>
                <circle id="Oval" fill="#F56843" cx="262.641546" cy="483.569337" r="61"></circle>
                <path d="M210.873199,351.404458 C205.599842,328.003938 213.345025,305.757137 234.176036,284.595475 C255.011437,263.429353 269.731889,253.174656 278.084024,253.817128 C278.497018,253.848897 277.968231,253.982331 278,253.569337 C278.031769,253.156344 277.912993,253.101106 277.5,253.069337 C277.261015,253.050954 277.716875,252.292641 277.469438,252.28998 C268.418046,252.19265 253.708477,262.614772 233.107057,283.543199 C211.938068,305.048204 204.016584,327.801403 209.409894,351.734217 C209.500955,352.138297 209.902345,352.39205 210.306426,352.300989 C210.710506,352.209929 210.964259,351.808538 210.873199,351.404458 Z" id="Path-458" fill="#F56843" fill-rule="nonzero"></path>
                <path d="M223.141546,531.069337 L245.641546,473.533223 L302.07257,457.176405 C304.194373,456.561389 306.413004,457.782882 307.028019,459.904686 C307.398265,461.182035 307.10944,462.559869 306.257382,463.580996 L274.141546,502.069337 L274.141546,502.069337 L271.5,544.569337 L223.141546,531.069337 Z" id="Path-428" fill="#eeeeee"></path>
                <path d="M245.516154,473.569337 C237.840109,481.954288 232.959593,487.466326 230.874608,490.105451 C219.927705,503.961778 220.330892,509.198917 225.516154,512.569337 C235.516154,519.069337 245.874608,532.105451 252.874608,520.105451 C257.541275,512.105451 255.088457,496.593413 245.516154,473.569337 Z" id="Path-429" fill="#FFD1D1"></path>
                <path d="M245.088347,473.026794 C245.458612,472.622334 246.123571,472.738971 246.334079,473.245302 C255.992462,496.476427 258.474463,512.17302 253.647834,520.44724 C250.894953,525.166466 247.389981,526.585607 243.094026,525.21819 C239.991302,524.230583 237.641539,522.625499 231.401755,517.719987 C230.107004,516.702097 229.277566,516.058102 228.467671,515.449258 L228.093637,515.169516 C227.05715,514.398234 226.122383,513.740281 225.232805,513.162056 C218.947175,509.076396 220.094312,502.663648 230.411497,489.604403 C232.511885,486.945782 237.399402,481.425836 245.088347,473.026794 Z M245.398652,474.909934 C238.193157,482.793096 233.585492,488.00653 231.588503,490.534272 C221.744139,502.995033 220.764948,508.46892 226.050288,511.904391 C226.968951,512.501521 227.928898,513.177197 228.989111,513.966134 C229.942396,514.675504 230.82504,515.358549 232.328817,516.540769 C238.39894,521.312898 240.692584,522.879648 243.548989,523.788852 C247.165089,524.939868 249.947829,523.813154 252.352166,519.691434 C256.786807,512.089192 254.510973,497.126413 245.398652,474.909934 Z M275.883973,500.14154 C276.120238,499.801318 276.587574,499.717044 276.927797,499.95331 C277.268019,500.189575 277.352293,500.656911 277.116027,500.997134 C274.210797,505.180666 271.537458,507.319337 269,507.319337 C268.585786,507.319337 268.25,506.983551 268.25,506.569337 C268.25,506.155124 268.585786,505.819337 269,505.819337 C270.906987,505.819337 273.233647,503.958009 275.883973,500.14154 Z" id="Combined-Shape" fill="#F56843" fill-rule="nonzero"></path>
                <circle id="Oval" fill="#eeeeee" cx="207.5" cy="358.069337" r="7.5"></circle>
                <path d="M207.141546,366.319337 C211.697896,366.319337 215.391546,362.625686 215.391546,358.069337 C215.391546,353.512988 211.697896,349.819337 207.141546,349.819337 C202.585197,349.819337 198.891546,353.512988 198.891546,358.069337 C198.891546,362.625686 202.585197,366.319337 207.141546,366.319337 Z M207.141546,364.819337 C203.413624,364.819337 200.391546,361.797259 200.391546,358.069337 C200.391546,354.341415 203.413624,351.319337 207.141546,351.319337 C210.869469,351.319337 213.891546,354.341415 213.891546,358.069337 C213.891546,361.797259 210.869469,364.819337 207.141546,364.819337 Z" id="Oval" fill="#F56843" fill-rule="nonzero"></path>
                <path d="M207.141546,362.319337 C209.744278,362.319337 211.891546,360.440477 211.891546,358.069337 C211.891546,355.698197 209.744278,353.819337 207.141546,353.819337 C204.538815,353.819337 202.391546,355.698197 202.391546,358.069337 C202.391546,360.440477 204.538815,362.319337 207.141546,362.319337 Z M207.141546,360.819337 C205.326,360.819337 203.891546,359.564191 203.891546,358.069337 C203.891546,356.574484 205.326,355.319337 207.141546,355.319337 C208.957093,355.319337 210.391546,356.574484 210.391546,358.069337 C210.391546,359.564191 208.957093,360.819337 207.141546,360.819337 Z" id="Oval" fill="#F56843" fill-rule="nonzero"></path>
                <path d="M271.5,541.069337 L268.641546,569.069337 L226.141546,594.069337 L192.5,611.569337 L176,589.569337 C189.795963,588.770007 197.629296,586.60334 199.5,583.069337 C205.036926,572.609363 212.870259,555.442696 223,531.569337 L271.5,541.069337 Z" id="Path-435" fill="#eeeeee"></path>
                <path d="M271.644168,539.833324 C272.024545,539.907831 272.285487,540.259906 272.246122,540.645507 L269.387669,568.645507 C269.363424,568.882993 269.227572,569.094752 269.021812,569.215788 L226.487661,594.234698 L192.846114,611.734698 C192.520528,611.904064 192.120202,611.812939 191.9,611.519337 L175.4,589.519337 C175.041071,589.040766 175.359405,588.355195 175.956618,588.320593 C189.473714,587.53742 197.144724,585.415651 198.837141,582.218456 C204.361679,571.781883 212.187565,554.631538 222.309581,530.776384 C222.448074,530.449988 222.796217,530.265168 223.144168,530.333324 L271.644168,539.833324 Z M223.452714,531.922266 C213.430309,555.522527 205.668722,572.518926 200.162859,582.920218 C198.182349,586.661661 190.646022,588.852913 177.434219,589.731629 L192.718294,610.110396 L225.761281,592.922887 L267.933989,568.115412 L270.684391,541.173831 L223.452714,531.922266 Z M268.261281,567.922887 L267.895424,568.493167 L267.933989,568.115412 L268.261281,567.922887 Z" id="Path-435" fill="#F56843" fill-rule="nonzero"></path>
                <path d="M177,359.069337 L179.358454,368.069337 L178.794577,368.266427 C178.419956,368.401445 178.047964,368.543703 177.678811,368.693123 C161.868153,375.092675 154.238944,393.097607 160.638496,408.908265 L160.638496,408.908265 L165.358454,420.569337 L156.358454,425.569337 L151.034197,408.236028 C145.291132,389.539272 154.285195,369.48029 172.065523,361.330972 L172.065523,361.330972 L177,359.069337 Z M89,318.569337 C93.9705627,318.569337 98,322.598774 98,327.569337 C98,332.5399 93.9705627,336.569337 89,336.569337 C84.0294373,336.569337 80,332.5399 80,327.569337 C80,322.598774 84.0294373,318.569337 89,318.569337 Z" id="Combined-Shape" fill="#eeeeee"></path>
                <path d="M109.741903,369.679249 C109.764677,369.525524 109.739136,369.36852 109.668812,369.22994 L92.6688121,335.72994 C92.4813682,335.360565 92.0299775,335.213081 91.6606028,335.400525 C91.2912281,335.587969 91.1437441,336.03936 91.3311879,336.408734 L108.223091,369.69572 L106.258097,382.959426 C106.207839,383.29867 106.394091,383.62879 106.71045,383.76119 L120.423338,389.500219 L142.839553,431.156681 C143.035835,431.521436 143.490646,431.65801 143.8554,431.461727 C144.220155,431.265445 144.356729,430.810635 144.160447,430.44588 L121.618363,388.555513 C121.536928,388.404182 121.405993,388.285406 121.247466,388.21906 L107.827339,382.602556 L109.741903,369.679249 Z" id="Path-438" fill="#F56843" fill-rule="nonzero"></path>
                <path d="M88.6415464,337.319337 C83.2567701,337.319337 78.8915464,332.954113 78.8915464,327.569337 C78.8915464,322.184561 83.2567701,317.819337 88.6415464,317.819337 C94.0263228,317.819337 98.3915464,322.184561 98.3915464,327.569337 C98.3915464,332.954113 94.0263228,337.319337 88.6415464,337.319337 Z M88.6415464,335.819337 C93.1978956,335.819337 96.8915464,332.125686 96.8915464,327.569337 C96.8915464,323.012988 93.1978956,319.319337 88.6415464,319.319337 C84.0851973,319.319337 80.3915464,323.012988 80.3915464,327.569337 C80.3915464,332.125686 84.0851973,335.819337 88.6415464,335.819337 Z M176.329055,358.387539 C176.752667,358.193383 177.248926,358.428453 177.36705,358.879219 L179.725503,367.879219 C179.825321,368.260129 179.613564,368.653371 179.240605,368.779696 C178.688549,368.966682 178.142035,369.169647 177.601752,369.388333 C162.175048,375.632475 154.73111,393.200167 160.975252,408.626871 L165.69521,420.287943 C165.837324,420.639046 165.695341,421.041006 165.364232,421.224955 L156.364232,426.224955 C155.947378,426.456541 155.423082,426.245403 155.28306,425.789559 L149.958804,408.456249 C144.105295,389.399941 153.272321,368.955209 171.394579,360.649174 L176.329055,358.387539 Z M172.019561,362.012771 C154.581161,370.005371 145.760062,389.678603 151.392683,408.015806 L156.445089,424.464096 L164.055913,420.235861 L159.584832,409.18966 C153.02987,392.995048 160.844351,374.552875 177.038962,367.997913 C177.389947,367.855847 177.743437,367.720102 178.09926,367.590741 L176.142374,360.123148 L172.019561,362.012771 Z" id="Combined-Shape" fill="#F56843" fill-rule="nonzero"></path>
                <path d="M47.9968295,578.250438 C55.2812758,581.90564 63.5821221,587.138875 72.4434096,594.191144 C84.4994796,603.785985 96.2034599,615.681416 107.098642,630.117532 L106.771099,629.687169 L157.142855,602.409832 C157.50709,602.212586 157.96226,602.347958 158.159506,602.712193 C158.340314,603.046075 158.241632,603.456367 157.943375,603.67436 L157.857145,603.728843 L107.680764,630.899903 C120.778457,648.754651 129.121896,677.285254 132.746816,716.500304 L132.746816,716.500304 L131.253184,716.638371 C127.598188,677.097962 119.135133,648.555894 105.901358,631.021142 C95.0836924,616.687735 83.4684538,604.882498 71.5093389,595.364818 C62.7317068,588.379127 54.5184779,583.20113 47.3240988,579.591122 L47.3240988,579.591122 Z M180.495056,615.915474 L180.549832,616.001519 L225.158285,697.709948 C225.35677,698.073509 225.22295,698.529138 224.859389,698.727623 C224.526125,698.909567 224.115498,698.812283 223.896491,698.514771 L223.841715,698.428726 L179.233261,616.720297 C179.034776,616.356736 179.168597,615.901107 179.532158,615.702622 C179.865422,615.520678 180.276048,615.617962 180.495056,615.915474 Z M118.622216,492.150433 L118.673218,492.238767 L162.865937,582.238767 C163.048506,582.610575 162.895097,583.059987 162.523289,583.242556 C162.182464,583.409911 161.776432,583.294951 161.570502,582.988242 L161.5195,582.899908 L117.326782,492.899908 C117.144212,492.528099 117.297621,492.078688 117.669429,491.896119 C118.010254,491.728764 118.416286,491.843723 118.622216,492.150433 Z" id="Combined-Shape" fill="#F56843" fill-rule="nonzero"></path>
                <line x1="201" y1="438.569337" x2="223.141546" y2="483.569337" id="Path-443" stroke="#F56843" stroke-width="1.5" stroke-linecap="round" stroke-linejoin="round"></line>
                <line x1="268.891546" y1="568.819337" x2="308.5" y2="646.722052" id="Path-444" stroke="#F56843" stroke-width="1.5" stroke-linecap="round" stroke-linejoin="round"></line>
                <path d="M785,415.569337 C785.552285,415.569337 786,416.017052 786,416.569337 L786,429.569337 L799,429.569337 C799.552285,429.569337 800,430.017052 800,430.569337 C800,431.121622 799.552285,431.569337 799,431.569337 L785.999,431.569337 L786,444.569337 C786,445.121622 785.552285,445.569337 785,445.569337 C784.447715,445.569337 784,445.121622 784,444.569337 L783.999,431.569337 L771,431.569337 C770.447715,431.569337 770,431.121622 770,430.569337 C770,430.017052 770.447715,429.569337 771,429.569337 L784,429.569337 L784,416.569337 C784,416.017052 784.447715,415.569337 785,415.569337 Z M12,418.569337 C12.5522847,418.569337 13,419.017052 13,419.569337 L13,429.569337 L23,429.569337 C23.5522847,429.569337 24,430.017052 24,430.569337 C24,431.121622 23.5522847,431.569337 23,431.569337 L13,431.569337 L13,441.569337 C13,442.121622 12.5522847,442.569337 12,442.569337 C11.4477153,442.569337 11,442.121622 11,441.569337 L11,431.569337 L1,431.569337 C0.44771525,431.569337 6.76353751e-17,431.121622 0,430.569337 C-6.76353751e-17,430.017052 0.44771525,429.569337 1,429.569337 L11,429.569337 L11,419.569337 C11,419.017052 11.4477153,418.569337 12,418.569337 Z M894.29665,212.347437 C894.695347,212.235128 895.1096,212.467291 895.221909,212.865988 C895.334218,213.264686 895.102055,213.678938 894.703357,213.791247 L894.703357,213.791247 L831.060907,231.718698 C815.511712,236.098753 806.457335,252.254602 810.83739,267.803797 C811.85829,271.427993 813.569322,274.820994 815.876547,277.796519 L815.876547,277.796519 L825.208897,289.832033 C834.256231,301.499974 832.131809,318.293023 820.463868,327.340357 C815.224617,331.402878 808.662746,333.373714 802.05212,332.870265 L802.05212,332.870265 L769.960461,330.426243 C753.66845,329.185483 737.761218,335.787464 727.135664,348.199825 L727.135664,348.199825 L711.569755,366.383318 C711.300387,366.697983 710.826935,366.734703 710.512271,366.465336 C710.197606,366.195968 710.160885,365.722516 710.430253,365.407851 L710.430253,365.407851 L725.996162,347.224358 C736.932708,334.448708 753.305517,327.653499 770.074367,328.930574 L770.074367,328.930574 L802.166027,331.374596 C808.405738,331.849798 814.599431,329.989542 819.544714,326.154964 C830.557981,317.615265 832.563204,301.764454 824.023505,290.751187 L824.023505,290.751187 L814.691154,278.715673 C812.26561,275.587558 810.466833,272.020557 809.393579,268.210504 C804.788906,251.863915 814.30761,234.879561 830.654199,230.274888 L830.654199,230.274888 Z M625.5,274.069337 C626.052285,274.069337 626.5,274.517052 626.5,275.069337 L626.5,284.569337 L636,284.569337 C636.552285,284.569337 637,285.017052 637,285.569337 C637,286.121622 636.552285,286.569337 636,286.569337 L626.5,286.569337 L626.5,296.069337 C626.5,296.621622 626.052285,297.069337 625.5,297.069337 C624.947715,297.069337 624.5,296.621622 624.5,296.069337 L624.5,286.569337 L615,286.569337 C614.447715,286.569337 614,286.121622 614,285.569337 C614,285.017052 614.447715,284.569337 615,284.569337 L624.5,284.569337 L624.5,275.069337 C624.5,274.517052 624.947715,274.069337 625.5,274.069337 Z M371.5,244.569337 C372.052285,244.569337 372.5,245.017052 372.5,245.569337 L372.5,255.069337 L382,255.069337 C382.552285,255.069337 383,255.517052 383,256.069337 C383,256.621622 382.552285,257.069337 382,257.069337 L372.5,257.069337 L372.5,266.569337 C372.5,267.121622 372.052285,267.569337 371.5,267.569337 C370.947715,267.569337 370.5,267.121622 370.5,266.569337 L370.5,257.069337 L361,257.069337 C360.447715,257.069337 360,256.621622 360,256.069337 C360,255.517052 360.447715,255.069337 361,255.069337 L370.5,255.069337 L370.5,245.569337 C370.5,245.017052 370.947715,244.569337 371.5,244.569337 Z M741,153.569337 C741.552285,153.569337 742,154.017052 742,154.569337 L742,167.569337 L755,167.569337 C755.552285,167.569337 756,168.017052 756,168.569337 C756,169.121622 755.552285,169.569337 755,169.569337 L741.999,169.569337 L742,182.569337 C742,183.121622 741.552285,183.569337 741,183.569337 C740.447715,183.569337 740,183.121622 740,182.569337 L739.999,169.569337 L727,169.569337 C726.447715,169.569337 726,169.121622 726,168.569337 C726,168.017052 726.447715,167.569337 727,167.569337 L740,167.569337 L740,154.569337 C740,154.017052 740.447715,153.569337 741,153.569337 Z M317,95.5693372 C317.552285,95.5693372 318,96.0170524 318,96.5693372 L318,109.569337 L331,109.569337 C331.552285,109.569337 332,110.017052 332,110.569337 C332,111.121622 331.552285,111.569337 331,111.569337 L317.999,111.569337 L318,124.569337 C318,125.121622 317.552285,125.569337 317,125.569337 C316.447715,125.569337 316,125.121622 316,124.569337 L315.999,111.569337 L303,111.569337 C302.447715,111.569337 302,111.121622 302,110.569337 C302,110.017052 302.447715,109.569337 303,109.569337 L316,109.569337 L316,96.5693372 C316,96.0170524 316.447715,95.5693372 317,95.5693372 Z" id="Combined-Shape" fill="#F56843" fill-rule="nonzero"></path>
                <path d="M272.167748,473.051214 C267.310408,469.569337 263.336221,468.698868 260.245187,470.439806 C255.608636,473.051214 249.647355,478.27403 252.959177,484.80255 C256.271,491.331069 258.920458,496.553885 262.232281,496.553885 C265.544103,496.553885 271.505384,497.206737 274.817206,490.025365 C277.025088,485.237784 276.141935,479.579734 272.167748,473.051214 Z" id="Path-466" fill="#FFD1D1"></path>
                <path d="M271.89633,476.053862 C271.553522,479.594956 270.37423,481.87678 268.358454,482.899332 C266.595837,483.793463 263.838307,484.314161 260.085863,484.461425 L260.085864,484.461437 C258.430277,484.526411 257.035488,483.236964 256.970515,481.581378 C256.94826,481.014293 257.087314,480.452528 257.371533,479.961305 C259.434561,476.395719 261.263534,474.208395 262.858454,473.399332 C264.532334,472.550214 266.715812,472.352607 269.408886,472.806511 L269.408887,472.806506 C270.961872,473.068253 272.048083,474.486302 271.89633,476.053862 Z" id="Path-450" fill="#eeeeee"></path>
                <path d="M269.175084,472.236942 C271.116315,472.564126 272.474078,474.336686 272.284386,476.296136 C271.919223,480.068153 270.620543,482.580981 268.339297,483.7382 C266.461265,484.690879 263.607619,485.229729 259.756821,485.380865 C257.68734,485.462082 255.943855,483.850275 255.862638,481.780794 C255.834819,481.071939 256.008637,480.369732 256.36391,479.755704 C258.494291,476.073711 260.401425,473.792912 262.160703,472.900474 C263.994239,471.970367 266.335998,471.758434 269.175084,472.236942 Z M262.839297,474.2382 C261.408736,474.963888 259.657923,477.057737 257.662248,480.506915 C257.449084,480.875333 257.344793,481.296658 257.361484,481.721972 C257.410214,482.963663 258.456308,483.930749 259.697997,483.882019 C263.352108,483.738602 266.013512,483.236053 267.660703,482.400474 C269.210664,481.614218 270.219228,479.916019 270.652335,477.238922 C270.14926,478.029902 269.150225,478.569337 268,478.569337 C266.343146,478.569337 265,477.450049 265,476.069337 C265,474.688625 266.343146,473.569337 268,473.569337 L267.878175,473.57081 C265.817065,473.350198 264.139742,473.578517 262.839297,474.2382 Z" id="Combined-Shape" fill="#F56843" fill-rule="nonzero"></path>
                <path d="M303.5,456.829337 C301.160033,456.244346 298.691736,456.646513 296.095108,458.03584 L296.095131,458.035884 C295.608193,458.296421 295.424658,458.902369 295.685195,459.389307 C295.740182,459.492078 295.812714,459.584443 295.899514,459.662232 C296.890842,460.550644 298.091004,461.055064 299.5,461.175491 C301.36645,461.335017 303.533117,461.335017 306,461.175491 C307,458.944722 306.166667,457.496004 303.5,456.829337 Z" id="Path-451" fill="#FFD1D1"></path>
                <path d="M304.181902,455.995576 C301.650462,455.362716 298.994024,455.795538 296.241283,457.268394 C295.389129,457.724438 295.067965,458.78484 295.523902,459.636978 C295.620132,459.81683 295.747066,459.978474 295.898969,460.114608 C297.013556,461.113483 298.367518,461.682543 299.93613,461.816613 C301.842818,461.979577 304.046291,461.979577 306.548399,461.817774 C306.82587,461.799831 307.070644,461.629853 307.184382,461.376129 C308.386295,458.694939 307.278934,456.769834 304.181902,455.995576 Z M300.06387,460.322062 C298.814489,460.215277 297.768128,459.775499 296.900059,458.997549 C296.878362,458.978105 296.860232,458.955017 296.846487,458.929328 C296.781358,458.807604 296.827243,458.656103 296.948992,458.590947 C299.389448,457.28518 301.669605,456.913667 303.818098,457.45079 C305.875043,457.965026 306.513203,458.828888 305.981285,460.349569 C303.744362,460.477489 301.771386,460.468003 300.06387,460.322062 Z" id="Path-451" fill="#F56843" fill-rule="nonzero"></path>
                <polyline id="Path-471" fill="#eeeeee" points="925 167.569337 915 170.069337 940.5 195.069337 943.5 185.069337"></polyline>
                <circle id="Oval-Copy-3" fill="#eeeeee" cx="541.5" cy="669.069337" r="7.5"></circle>
                <path d="M541.141546,677.319337 C545.697896,677.319337 549.391546,673.625686 549.391546,669.069337 C549.391546,664.512988 545.697896,660.819337 541.141546,660.819337 C536.585197,660.819337 532.891546,664.512988 532.891546,669.069337 C532.891546,673.625686 536.585197,677.319337 541.141546,677.319337 Z M541.141546,675.819337 C537.413624,675.819337 534.391546,672.797259 534.391546,669.069337 C534.391546,665.341415 537.413624,662.319337 541.141546,662.319337 C544.869469,662.319337 547.891546,665.341415 547.891546,669.069337 C547.891546,672.797259 544.869469,675.819337 541.141546,675.819337 Z" id="Oval-Copy-3" fill="#F56843" fill-rule="nonzero"></path>
                <circle id="Oval-Copy-5" fill="#eeeeee" cx="654.5" cy="550.069337" r="7.5"></circle>
                <path d="M654.5,558.319337 C659.056349,558.319337 662.75,554.625686 662.75,550.069337 C662.75,545.512988 659.056349,541.819337 654.5,541.819337 C649.943651,541.819337 646.25,545.512988 646.25,550.069337 C646.25,554.625686 649.943651,558.319337 654.5,558.319337 Z M654.5,556.819337 C650.772078,556.819337 647.75,553.797259 647.75,550.069337 C647.75,546.341415 650.772078,543.319337 654.5,543.319337 C658.227922,543.319337 661.25,546.341415 661.25,550.069337 C661.25,553.797259 658.227922,556.819337 654.5,556.819337 Z" id="Oval-Copy-5" fill="#F56843" fill-rule="nonzero"></path>
                <path d="M541.141546,673.319337 C543.744278,673.319337 545.891546,671.440477 545.891546,669.069337 C545.891546,666.698197 543.744278,664.819337 541.141546,664.819337 C538.538815,664.819337 536.391546,666.698197 536.391546,669.069337 C536.391546,671.440477 538.538815,673.319337 541.141546,673.319337 Z M541.141546,671.819337 C539.326,671.819337 537.891546,670.564191 537.891546,669.069337 C537.891546,667.574484 539.326,666.319337 541.141546,666.319337 C542.957093,666.319337 544.391546,667.574484 544.391546,669.069337 C544.391546,670.564191 542.957093,671.819337 541.141546,671.819337 Z" id="Oval-Copy-4" fill="#F56843" fill-rule="nonzero"></path>
                <path d="M654.5,554.319337 C657.102731,554.319337 659.25,552.440477 659.25,550.069337 C659.25,547.698197 657.102731,545.819337 654.5,545.819337 C651.897269,545.819337 649.75,547.698197 649.75,550.069337 C649.75,552.440477 651.897269,554.319337 654.5,554.319337 Z M654.5,552.819337 C652.684453,552.819337 651.25,551.564191 651.25,550.069337 C651.25,548.574484 652.684453,547.319337 654.5,547.319337 C656.315547,547.319337 657.75,548.574484 657.75,550.069337 C657.75,551.564191 656.315547,552.819337 654.5,552.819337 Z" id="Oval-Copy-6" fill="#F56843" fill-rule="nonzero"></path>
                <path d="M214.135844,358.623201 C221.990681,365.795009 239.144787,368.990382 265.660528,368.319097 C292.122835,367.649165 310.913858,363.622517 322.057572,356.193375 C322.402218,355.963611 322.495349,355.497959 322.265584,355.153312 C322.03582,354.808666 321.570168,354.715535 321.225521,354.945299 C310.369235,362.182824 291.826924,366.156176 265.622565,366.819577 C239.47164,367.481626 222.625745,364.343665 215.147248,357.515473 C214.841358,357.236182 214.366974,357.257744 214.087682,357.563635 C213.808391,357.869526 213.829954,358.34391 214.135844,358.623201 Z" id="Path-459" fill="#F56843" fill-rule="nonzero"></path>
                <path d="M1004.55044,-6.46815922 C992.620289,16.9314854 984.939715,45.4205751 981.508719,78.99911 C977.969684,113.635012 978.74143,155.747462 983.823958,205.336459 L1031.92947,205.336459 C1036.88215,155.280592 1037.65389,113.168143 1034.24471,78.99911 C1030.93834,45.860494 1023.4183,17.3760898 1011.6846,-6.45410271 C1011.01855,-7.80680862 1009.64175,-8.66354062 1008.13396,-8.66354062 C1006.62174,-8.66354062 1005.2373,-7.81539158 1004.55044,-6.46815922 Z" id="Path-460" fill="#FFD1D1" transform="translate(1007.829630, 98.336459) rotate(44.000000) translate(-1007.829630, -98.336459) "></path>
                <path d="M1039,39.5693372 L1065.5,64.0693372 C1079.83333,38.0693372 1085.5,23.7360039 1082.5,21.0693372 C1079.5,18.4026705 1065,24.5693372 1039,39.5693372 Z" id="Path-470" fill="#FFAFAF"></path>
                <path d="M924.818098,166.34173 L925.181902,167.796944 L916.481963,169.971929 L940.138418,193.164532 L942.78163,184.353826 L944.21837,184.784848 L940.861582,195.974142 L936.261,191.46373 L920.5,210.569337 L922,196.069337 L909.5,199.069337 L914.5,188.069337 L900,188.069337 L918.168,173.72573 L913.518037,169.166746 L924.818098,166.34173 Z" id="Combined-Shape" fill="#F56843"></path>
                <path d="M980.747596,78.5864139 C977.202839,113.278314 977.975492,155.440265 983.062858,205.076469 C983.102072,205.45907 983.424345,205.75 983.80895,205.75 L1031.91446,205.75 C1032.30008,205.75 1032.62285,205.457587 1032.66082,205.073847 C1037.61802,154.972259 1038.39064,112.811962 1034.976,78.5881898 C1031.66116,45.3647513 1024.11832,16.7939689 1012.34245,-7.12186864 C1011.55019,-8.73091071 1009.91248,-9.75 1008.11896,-9.75 C1006.32477,-9.75 1004.68219,-8.7437033 1003.86726,-7.14527259 C991.892021,16.3428036 984.187495,44.9207383 980.747596,78.5864139 Z M984.486225,204.25 C979.470449,155.000397 978.722536,113.161978 982.239826,78.7388873 C985.661918,45.2474932 993.318539,16.8472484 1005.2036,-6.46395714 C1005.76239,-7.55999176 1006.8887,-8.25 1008.11896,-8.25 C1009.34102,-8.25 1010.45691,-7.55562045 1010.99673,-6.4592609 C1022.68826,17.2852919 1030.1855,45.683318 1033.48341,78.7371114 C1036.87178,112.697549 1036.12313,154.536745 1031.2348,204.25 L984.486225,204.25 Z" id="Path-460" fill="#F56843" fill-rule="nonzero" transform="translate(1007.814621, 98.000000) rotate(44.000000) translate(-1007.814621, -98.000000) "></path>
                <path d="M1002.78769,139.17511 L952.365535,228.7601 L949.464584,225.859149 L950.926403,191.036394 L994.925218,143.774009 L1002.78769,139.17511 Z M967.691358,105.569337 L963.230378,113.510871 L916.743076,158.327827 L881.951138,160.397165 L879,157.547284 L967.691358,105.569337 Z" id="Combined-Shape" fill="#eeeeee"></path>
                <path d="M966.82447,105.278623 C967.484673,104.891707 968.232353,105.625828 967.857583,106.293001 L963.396603,114.234535 L963.263247,114.407164 L916.775945,159.224121 C916.647227,159.348214 916.478412,159.422241 916.299934,159.432856 L881.507995,161.502193 C881.298526,161.514652 881.093418,161.438788 880.942472,161.293021 L877.991334,158.443141 C877.634144,158.098206 877.704708,157.507637 878.133112,157.256569 L966.82447,105.278623 Z M879.744446,158.050856 L881.747612,159.985291 L915.934316,157.951951 L962.142799,113.403795 L965.193329,107.973175 L879.744446,158.050856 Z M962.222165,113.327281 L962.088808,113.49991 L962.142799,113.403795 L962.222165,113.327281 Z M1001.92135,138.884075 C1002.58188,138.497718 1003.32894,139.232472 1002.9536,139.899327 L952.531449,229.484317 C952.287896,229.917038 951.698649,229.997898 951.347533,229.646782 L948.446582,226.745831 C948.298203,226.597452 948.218771,226.393699 948.227572,226.184044 L949.689391,191.36129 C949.69689,191.182653 949.76796,191.012572 949.889787,190.881708 L993.888602,143.619323 L994.058878,143.482974 L1001.92135,138.884075 Z M994.911374,144.722088 L951.176451,191.701007 L949.740062,225.91799 L951.709162,227.887091 L1000.28793,141.577246 L994.911374,144.722088 Z" id="Combined-Shape" fill="#F56843" fill-rule="nonzero"></path>
                <circle id="Oval" fill="#eeeeee" cx="1024" cy="82.5693372" r="15"></circle>
                <path d="M1024.20157,97.9693476 C1032.90005,97.9693476 1039.95157,90.9178324 1039.95157,82.2193476 C1039.95157,73.5208628 1032.90005,66.4693476 1024.20157,66.4693476 C1015.50308,66.4693476 1008.45157,73.5208628 1008.45157,82.2193476 C1008.45157,90.9178324 1015.50308,97.9693476 1024.20157,97.9693476 Z M1024.20157,96.4693476 C1016.33151,96.4693476 1009.95157,90.0894053 1009.95157,82.2193476 C1009.95157,74.3492899 1016.33151,67.9693476 1024.20157,67.9693476 C1032.07163,67.9693476 1038.45157,74.3492899 1038.45157,82.2193476 C1038.45157,90.0894053 1032.07163,96.4693476 1024.20157,96.4693476 Z" id="Oval" fill="#F56843" fill-rule="nonzero"></path>
                <path d="M1024,74.8193372 C1028.28021,74.8193372 1031.75,78.2891304 1031.75,82.5693372 C1031.75,86.849544 1028.28021,90.3193372 1024,90.3193372 C1019.71979,90.3193372 1016.25,86.849544 1016.25,82.5693372 C1016.25,78.2891304 1019.71979,74.8193372 1024,74.8193372 Z M1024,76.3193372 C1020.54822,76.3193372 1017.75,79.1175575 1017.75,82.5693372 C1017.75,86.0211169 1020.54822,88.8193372 1024,88.8193372 C1027.45178,88.8193372 1030.25,86.0211169 1030.25,82.5693372 C1030.25,79.1175575 1027.45178,76.3193372 1024,76.3193372 Z M1039.51231,38.5215786 L1066.24221,63.5215786 L1065.21759,64.6170958 L1038.48769,39.6170958 L1039.51231,38.5215786 Z" id="Combined-Shape" fill="#F56843" fill-rule="nonzero"></path>
                <path d="M514.600411,357.434649 C493.924882,370.451626 479.683151,382.850309 471.874463,394.65557 C464.07297,406.449953 457.04635,426.358709 450.768113,454.405505 L452.231887,454.733169 C458.473599,426.849543 465.44698,407.091632 473.125537,395.483104 C480.796899,383.885455 494.888502,371.617471 515.399589,358.704025 L514.600411,357.434649 Z" id="Path-439" fill="#F56843" fill-rule="nonzero"></path>
                <path d="M223.329962,532.823051 C231.845407,533.654843 239.608786,533.964536 246.6201,533.752131 C253.480895,533.544285 261.432266,532.859849 270.474212,531.698824 C272.392032,531.452595 274.14636,532.807662 274.392616,534.725479 C274.411603,534.873349 274.421126,535.022281 274.421126,535.171365 L274.421126,535.576259 C274.421121,537.626022 272.871644,539.344078 270.832763,539.555017 C262.375173,540.430029 254.423942,541.042434 246.979071,541.392231 C239.427277,541.747053 231.547093,541.073397 223.338518,539.371265 C221.550011,539.000391 220.267995,537.424246 220.26915,535.59769 C220.270125,534.05703 221.519867,532.808869 223.060527,532.809843 C223.150499,532.8099 223.240416,532.81431 223.329962,532.823051 Z" id="Rectangle" fill="#eeeeee" transform="translate(247.344160, 536.327703) rotate(14.000000) translate(-247.344160, -536.327703) "></path>
                <path d="M224.882786,525.936178 C225.063085,525.981131 225.239327,526.041023 225.409691,526.115215 C233.493954,529.636781 240.877493,532.123956 247.560308,533.576742 C254.26759,535.034847 262.148351,536.294353 271.20259,537.355259 C273.123011,537.580307 274.497407,539.319533 274.272387,541.239958 C274.255037,541.388029 274.228247,541.534841 274.19218,541.679496 L274.094228,542.072363 C273.598345,544.061239 271.679254,545.353407 269.649906,545.064832 C261.231858,543.867775 253.368659,542.538412 246.060308,541.076742 C238.674034,539.599487 230.972967,537.121412 222.957106,533.642516 C221.163358,532.864031 220.19536,530.902812 220.668413,529.0055 L220.825915,528.373792 C221.273061,526.580389 223.089384,525.489032 224.882786,525.936178 Z M256.002977,536.723851 L254.964998,541.22125 C259.718892,542.057433 264.684278,542.843624 269.861083,543.579771 C271.129425,543.760131 272.328858,542.952526 272.638784,541.70948 L272.736737,541.316613 C272.757351,541.233935 272.772663,541.150024 272.782579,541.065393 C272.911191,539.967766 272.125645,538.973693 271.028026,538.845067 C265.603425,538.209454 260.595259,537.502483 256.002977,536.723851 Z M238.510939,532.690798 L237.431028,537.37327 C240.457446,538.277215 243.431946,539.021364 246.354482,539.605871 C248.675064,540.069988 251.052121,540.520765 253.485641,540.958198 L254.522096,536.467737 C251.960717,536.015886 249.53394,535.540828 247.241663,535.042507 C244.44839,534.435273 241.538249,533.651314 238.510939,532.690798 Z M222.281359,528.736675 L222.123856,529.368382 C221.828198,530.554203 222.433197,531.779964 223.554291,532.266518 C227.793057,534.106149 231.939765,535.661641 235.994303,536.933361 L237.080208,532.226598 C233.180466,530.933725 229.090843,529.354888 224.810716,527.490435 C224.716649,527.449474 224.619376,527.416423 224.519903,527.391622 C223.53032,527.144891 222.52809,527.747092 222.281359,528.736675 Z" id="Combined-Shape" fill="#F56843" fill-rule="nonzero"></path>
                <path d="M143,442.069337 L150,456.569337 L143,461.069337 L136,445.069337 L143,442.069337 Z M159.5,436.569337 C161.517679,436.569337 163.222552,436.703497 164.5,438.069337 C165.670219,439.320528 166.5,441.721023 166.5,443.569337 C166.5,445.877332 165.72288,448.294205 164,449.569337 C162.83698,450.430108 161.057998,450.569337 159.5,450.569337 C157.632581,450.569337 155.755118,450.261102 154.5,449.069337 C153.15673,447.79387 152.5,445.567912 152.5,443.569337 C152.5,441.96954 153.09687,439.748231 154,438.569337 C155.27933,436.899373 157.233804,436.569337 159.5,436.569337 Z" id="Combined-Shape" fill="#FFD1D1"></path>
                <path d="M135.509999,444.677648 L143.863663,441.097506 L151.464062,456.841189 L143.165515,462.17597 L135.509999,444.677648 Z M143.834485,459.962705 L149.535938,456.297485 L143.136337,443.041168 L137.490001,445.461027 L143.834485,459.962705 Z M160,451.319337 C157.606168,451.319337 155.772709,450.837281 154.483574,449.613216 C153.055039,448.256788 152.25,445.915677 152.25,443.569337 C152.25,441.731668 152.932055,439.382773 153.904627,438.113233 C155.217241,436.399822 157.074385,435.819337 160,435.819337 C162.786241,435.819337 164.258023,436.178051 165.547758,437.557028 C166.829911,438.927898 167.75,441.496704 167.75,443.569337 C167.75,446.30519 166.76992,448.822402 164.946178,450.172185 C163.779956,451.035325 162.214595,451.319337 160,451.319337 Z M160,449.819337 C161.913006,449.819337 163.222529,449.581743 164.053822,448.966489 C165.4456,447.936411 166.25,445.870411 166.25,443.569337 C166.25,441.861521 165.461871,439.661137 164.452242,438.581647 C163.527935,437.593383 162.403538,437.319337 160,437.319337 C157.494633,437.319337 156.058503,437.768226 155.095373,439.025442 C154.339205,440.012499 153.75,442.041634 153.75,443.569337 C153.75,445.536288 154.419837,447.48422 155.516426,448.525458 C156.467515,449.428541 157.953876,449.819337 160,449.819337 Z" id="Combined-Shape" fill="#F56843" fill-rule="nonzero"></path>
                <rect id="Rectangle" fill="#eeeeee" x="438" y="234.569337" width="93" height="6" rx="3"></rect>
                <path d="M441,234.569337 L528,234.569337 C529.656854,234.569337 531,235.912483 531,237.569337 C531,239.226191 529.656854,240.569337 528,240.569337 L441,240.569337 C439.343146,240.569337 438,239.226191 438,237.569337 C438,235.912483 439.343146,234.569337 441,234.569337 Z M441,236.069337 C440.171573,236.069337 439.5,236.74091 439.5,237.569337 C439.5,238.397764 440.171573,239.069337 441,239.069337 L528,239.069337 C528.828427,239.069337 529.5,238.397764 529.5,237.569337 C529.5,236.74091 528.828427,236.069337 528,236.069337 L441,236.069337 Z" id="Rectangle" fill="#F56843" fill-rule="nonzero"></path>
                <rect id="Rectangle-Copy" stroke="#F56843" stroke-width="1.5" fill="#eeeeee" transform="translate(288.500000, 607.569337) rotate(63.000000) translate(-288.500000, -607.569337) " x="242.75" y="605.319337" width="91.5" height="4.5" rx="2.25"></rect>
                <path d="M270.113854,409.834837 C273.607088,411.155794 271.114043,427.80417 271.441803,430.887438 C271.441803,430.887438 271.441803,430.887438 271.441803,430.887438 C271.618011,432.545048 270.417098,434.031652 268.759488,434.20786 C267.239917,434.369394 265.839373,433.369748 265.498297,431.880165 C263.460494,422.980215 262.669317,417.76488 263.124822,416.234147 C264.279585,412.353543 266.620621,408.513881 270.113854,409.834837 Z" id="Rectangle-Copy-3" fill="#eeeeee" transform="translate(267.500000, 432.569337) rotate(119.000000) translate(-267.500000, -432.569337) "></path>
                <path d="M357.263368,502.867013 L392.617119,502.650057 C393.169393,502.646668 393.619848,503.091628 393.623237,503.643902 C393.62332,503.657431 393.623128,503.67096 393.622662,503.684482 L392.836018,526.509861 C392.81765,527.042823 392.384295,527.467602 391.851071,527.475313 L356.944802,527.98012 C356.392575,527.988106 355.938432,527.546912 355.930446,526.994685 C355.930306,526.984975 355.930307,526.975263 355.930449,526.965552 L356.269612,503.852322 C356.277596,503.308205 356.719202,502.870353 357.263368,502.867013 Z" id="Rectangle" fill="#eeeeee" transform="translate(374.786938, 515.319337) rotate(-32.000000) translate(-374.786938, -515.319337) "></path>
                <path d="M356,502.569337 L393,502.569337 C393.552285,502.569337 394,503.017052 394,503.569337 L394,527.569337 C394,528.121622 393.552285,528.569337 393,528.569337 L356,528.569337 C355.447715,528.569337 355,528.121622 355,527.569337 L355,503.569337 C355,503.017052 355.447715,502.569337 356,502.569337 Z M356.5,504.069337 L356.5,527.069337 L392.5,527.069337 L392.5,504.069337 L356.5,504.069337 Z" id="Rectangle" fill="#F56843" fill-rule="nonzero" transform="translate(374.500000, 515.569337) rotate(-32.000000) translate(-374.500000, -515.569337) "></path>
                <path d="M362.425888,506.927388 L386.425888,506.927388 C386.978173,506.927388 387.425888,507.375103 387.425888,507.927388 L387.425888,523.927388 C387.425888,524.479673 386.978173,524.927388 386.425888,524.927388 L362.425888,524.927388 C361.873604,524.927388 361.425888,524.479673 361.425888,523.927388 L361.425888,507.927388 C361.425888,507.375103 361.873604,506.927388 362.425888,506.927388 Z M362.925888,523.427388 L385.925888,523.427388 L385.925888,508.427388 L362.925888,508.427388 L362.925888,523.427388 Z" id="Rectangle" fill="#F56843" fill-rule="nonzero" transform="translate(374.425888, 515.927388) rotate(-32.000000) translate(-374.425888, -515.927388) "></path>
            </g>
        </g>
    </g>
</svg>