<?xml version="1.0" encoding="UTF-8"?>
<svg width="3200px" height="115px" viewBox="0 0 3200 115" version="1.1" xmlns="http://www.w3.org/2000/svg" xmlns:xlink="http://www.w3.org/1999/xlink">
    <title>Group 2</title>
    <g id="Welcome" stroke="none" stroke-width="1" fill="none" fill-rule="evenodd">
        <g id="Desktop-HD-Copy" transform="translate(0.000000, -397.000000)" fill="#111111">
            <g id="Group-2" transform="translate(0.000000, 397.000000)">
                <g id="Group-Copy">
                    <path d="M0,96.633172 C155.5,96.633172 204.949,-0.198425195 405.5,0.000919265066 C605.5,0.000919265066 655.5,96.633172 800,96.633172 L800,114.201389 L0,114.201389 C0,114.201389 0,119.792894 0,96.633172 Z" id="Path-Copy-2" transform="translate(400.000000, 57.397601) scale(-1, 1) translate(-400.000000, -57.397601) "></path>
                    <path d="M800,96.6334803 C955.5,96.6334803 1004.949,-0.198116878 1205.5,0.00122758263 C1405.5,0.00122758263 1455.5,96.6334803 1600,96.6334803 L1600,114.201697 L800,114.201697 C800,114.201697 800,119.793203 800,96.6334803 Z" id="Path-Copy-3" transform="translate(1200.000000, 57.397909) scale(-1, 1) translate(-1200.000000, -57.397909) "></path>
                </g>
                <g id="Group-Copy-2" transform="translate(1600.000000, 0.001537)">
                    <path d="M0,96.633172 C155.5,96.633172 204.949,-0.198425195 405.5,0.000919265066 C605.5,0.000919265066 655.5,96.633172 800,96.633172 L800,114.201389 L0,114.201389 C0,114.201389 0,119.792894 0,96.633172 Z" id="Path-Copy-4" transform="translate(400.000000, 57.397601) scale(-1, 1) translate(-400.000000, -57.397601) "></path>
                    <path d="M800,96.6334803 C955.5,96.6334803 1004.949,-0.198116878 1205.5,0.00122758263 C1405.5,0.00122758263 1455.5,96.6334803 1600,96.6334803 L1600,114.201697 L800,114.201697 C800,114.201697 800,119.793203 800,96.6334803 Z" id="Path-Copy-5" transform="translate(1200.000000, 57.397909) scale(-1, 1) translate(-1200.000000, -57.397909) "></path>
                </g>
            </g>
        </g>
    </g>
</svg>