<?xml version="1.0" encoding="UTF-8"?>
<svg width="1441px" height="115px" viewBox="0 0 1441 115" version="1.1" xmlns="http://www.w3.org/2000/svg" xmlns:xlink="http://www.w3.org/1999/xlink">
    <title>Group 7</title>
    <g id="Welcome" stroke="none" stroke-width="1" fill="none" fill-rule="evenodd">
        <g id="Desktop-HD" transform="translate(0.000000, -909.000000)" fill="#111111" fill-rule="nonzero">
            <g id="Group-7" transform="translate(0.000000, 909.000000)">
                <path d="M1,0 L48.9666667,26.7 C96.9333333,53 192.866667,107 288.8,101.3 C384.733333,96 480.666667,32 576.6,21.3 C672.533333,11 768.466667,53 864.4,80 C960.333333,107 1056.26667,117 1152.2,112 C1248.13333,107 1344.06667,85 1392.03333,74.7 L1440,64 L1441,112 L1,115 L1,0 Z" id="Path" fill-opacity="0.1" transform="translate(721.000000, 57.500000) scale(-1, 1) translate(-721.000000, -57.500000) "></path>
                <path d="M0,0 L49,26.7 C97,53 193,107 289,101.3 C385,96 481,32 577,21.3 C673,11 769,53 865,80 C961,107 1057,117 1153,112 C1249,107 1345,85 1393,74.7 L1441,64 L1441,115 L0,115 L0,0 Z" id="Path"></path>
            </g>
        </g>
    </g>
</svg>