<?xml version="1.0" encoding="UTF-8"?>
<svg width="300px" height="68px" viewBox="0 0 300 68" version="1.1" xmlns="http://www.w3.org/2000/svg" xmlns:xlink="http://www.w3.org/1999/xlink">
    <title>nextboilerpack</title>
    <g id="Page-1" stroke="none" stroke-width="1" fill="#111111" fill-rule="evenodd" class='text-fill'>
        <g id="Full-HD" transform="translate(-811.000000, -351.000000)" fill="#111111" fill-rule="nonzero" class='text-fill'>
            <path d="M828.248,397.24 C830.264,397.24 832.064,396.696 833.648,395.608 C835.232,394.52 836.712,393.128 838.088,391.432 C838.696,390.728 839,389.736 839,388.456 C839,387.784 838.88,387.256 838.64,386.872 C838.4,386.488 838.072,386.296 837.656,386.296 C837.176,386.296 836.744,386.52 836.36,386.968 C834.888,388.728 833.712,390 832.832,390.784 C831.952,391.568 831.192,391.96 830.552,391.96 C829.624,391.96 829.16,391.32 829.16,390.04 C829.16,389.144 829.464,387.304 830.072,384.52 C830.776,381.256 831.128,379 831.128,377.752 C831.128,375.672 830.088,374.632 828.008,374.632 C826.952,374.632 825.792,375 824.528,375.736 C823.264,376.472 821.976,377.704 820.664,379.432 C819.352,381.16 818.168,383.4 817.112,386.152 C817.24,384.744 817.4,383.56 817.592,382.6 C817.784,381.64 818.04,380.52 818.36,379.24 C818.84,377.448 819.08,376.296 819.08,375.784 C819.08,375.336 818.952,375.032 818.696,374.872 C818.44,374.712 817.992,374.632 817.352,374.632 C816.168,374.632 815.248,374.848 814.592,375.28 C813.936,375.712 813.464,376.392 813.176,377.32 C811.992,381.064 811.4,385.016 811.4,389.176 C811.4,391.992 811.648,394.04 812.144,395.32 C812.64,396.6 813.496,397.24 814.712,397.24 C815.704,397.24 816.432,396.976 816.896,396.448 C817.36,395.92 817.768,394.904 818.12,393.4 C818.6,391.448 819.232,389.592 820.016,387.832 C820.8,386.072 821.568,384.656 822.32,383.584 C823.072,382.512 823.656,381.976 824.072,381.976 C824.424,381.976 824.6,382.232 824.6,382.744 C824.6,383.512 824.392,384.904 823.976,386.92 C823.528,389.224 823.304,390.824 823.304,391.72 C823.304,393.512 823.72,394.88 824.552,395.824 C825.384,396.768 826.616,397.24 828.248,397.24 Z M845,397.24 C847.464,397.24 849.776,396.632 851.936,395.416 C854.096,394.2 855.768,392.872 856.952,391.432 C857.56,390.728 857.864,389.736 857.864,388.456 C857.864,387.784 857.744,387.256 857.504,386.872 C857.264,386.488 856.936,386.296 856.52,386.296 C856.04,386.296 855.608,386.52 855.224,386.968 C853.88,388.6 852.288,389.92 850.448,390.928 C848.608,391.936 846.968,392.44 845.528,392.44 C843.288,392.44 841.768,391.704 840.968,390.232 C844.744,389.304 847.424,388.048 849.008,386.464 C850.592,384.88 851.384,382.984 851.384,380.776 C851.384,378.888 850.824,377.392 849.704,376.288 C848.584,375.184 847.096,374.632 845.24,374.632 C843.16,374.632 841.296,375.192 839.648,376.312 C838,377.432 836.712,378.944 835.784,380.848 C834.856,382.752 834.392,384.808 834.392,387.016 C834.392,390.184 835.32,392.68 837.176,394.504 C839.032,396.328 841.64,397.24 845,397.24 Z M840.2,386.488 L840.2,386.392 C840.2,384.44 840.608,382.776 841.424,381.4 C842.24,380.024 843.24,379.336 844.424,379.336 C845,379.336 845.456,379.52 845.792,379.888 C846.128,380.256 846.296,380.744 846.296,381.352 C846.296,382.536 845.752,383.576 844.664,384.472 C843.576,385.368 842.088,386.04 840.2,386.488 L840.2,386.488 Z M871.784,397.24 C873.896,397.24 875.792,396.688 877.472,395.584 C879.152,394.48 880.696,393.096 882.104,391.432 C882.712,390.728 883.016,389.736 883.016,388.456 C883.016,387.784 882.896,387.256 882.656,386.872 C882.416,386.488 882.088,386.296 881.672,386.296 C881.192,386.296 880.76,386.52 880.376,386.968 C878.904,388.76 877.616,390.08 876.512,390.928 C875.408,391.776 874.232,392.2 872.984,392.2 C871.736,392.2 870.752,391.792 870.032,390.976 C869.312,390.16 868.952,389 868.952,387.496 C868.952,386.216 869.104,384.984 869.408,383.8 C869.712,382.616 870.08,381.664 870.512,380.944 C870.944,380.224 871.352,379.864 871.736,379.864 C872.056,379.864 872.28,379.96 872.408,380.152 C872.536,380.344 872.632,380.632 872.696,381.016 C872.824,381.56 873.016,381.976 873.272,382.264 C873.528,382.552 874.008,382.696 874.712,382.696 C875.48,382.696 876.136,382.288 876.68,381.472 C877.224,380.656 877.496,379.528 877.496,378.088 C877.496,376.808 877.168,375.88 876.512,375.304 C875.856,374.728 874.904,374.44 873.656,374.44 C872.504,374.44 871.328,374.76 870.128,375.4 C868.928,376.04 867.848,377 866.888,378.28 C866.312,377.032 865.48,376.08 864.392,375.424 C863.304,374.768 862.088,374.44 860.744,374.44 C859.176,374.44 857.896,374.904 856.904,375.832 C855.912,376.76 855.416,378.04 855.416,379.672 C855.416,380.696 855.624,381.456 856.04,381.952 C856.456,382.448 857.016,382.696 857.72,382.696 C858.52,382.696 859.08,382.544 859.4,382.24 C859.72,381.936 859.976,381.528 860.168,381.016 C860.328,380.6 860.488,380.304 860.648,380.128 C860.808,379.952 861.064,379.864 861.416,379.864 C861.832,379.864 862.184,380.256 862.472,381.04 C862.76,381.824 862.904,382.792 862.904,383.944 C862.904,385.448 862.72,386.824 862.352,388.072 C861.984,389.32 861.52,390.304 860.96,391.024 C860.4,391.744 859.816,392.104 859.208,392.104 C858.376,392.104 857.96,391.624 857.96,390.664 C857.96,390.504 858.008,389.848 858.104,388.696 C858.168,388.12 858.2,387.72 858.2,387.496 C858.2,386.632 857.624,386.2 856.472,386.2 C855.128,386.2 854.088,386.696 853.352,387.688 C852.616,388.68 852.248,389.976 852.248,391.576 C852.248,393.272 852.76,394.632 853.784,395.656 C854.808,396.68 856.2,397.192 857.96,397.192 C860.456,397.192 862.616,396.04 864.44,393.736 C865.176,394.856 866.176,395.72 867.44,396.328 C868.704,396.936 870.152,397.24 871.784,397.24 Z M890.072,397.24 C892.184,397.24 894.072,396.552 895.736,395.176 C896.216,394.792 896.576,394.312 896.816,393.736 C897.056,393.16 897.176,392.568 897.176,391.96 C897.176,391.352 897.056,390.832 896.816,390.4 C896.576,389.968 896.264,389.752 895.88,389.752 C895.528,389.752 895.176,389.912 894.824,390.232 C894.248,390.744 893.608,391.16 892.904,391.48 C892.2,391.8 891.592,391.96 891.08,391.96 C890.088,391.96 889.312,391.68 888.752,391.12 C888.192,390.56 887.792,389.632 887.552,388.336 C887.312,387.04 887.192,385.24 887.192,382.936 C887.192,382.04 887.224,380.792 887.288,379.192 L887.288,379.192 L893.144,379.192 C896.76,379.192 898.568,378.088 898.568,375.88 C898.568,375.272 898.456,374.856 898.232,374.632 C898.008,374.408 897.64,374.296 897.128,374.296 L897.128,374.296 L891.752,374.296 C895.912,370.616 897.992,366.296 897.992,361.336 C897.992,359.544 897.608,358.056 896.84,356.872 C896.072,355.688 895.016,355.096 893.672,355.096 C891.848,355.096 890.144,355.96 888.56,357.688 C886.976,359.416 885.624,361.736 884.504,364.648 C883.384,367.56 882.552,370.776 882.008,374.296 L882.008,374.296 L879.272,374.296 C877.832,374.296 877.112,375.192 877.112,376.984 C877.112,377.752 877.28,378.312 877.616,378.664 C877.952,379.016 878.6,379.192 879.56,379.192 L879.56,379.192 L881.432,379.192 C881.336,380.632 881.288,382.056 881.288,383.464 C881.288,387.56 881.992,390.88 883.4,393.424 C884.808,395.968 887.032,397.24 890.072,397.24 Z M887.768,373.576 C888.12,370.984 888.56,368.624 889.088,366.496 C889.616,364.368 890.176,362.704 890.768,361.504 C891.36,360.304 891.896,359.704 892.376,359.704 C893.08,359.704 893.432,360.648 893.432,362.536 C893.432,364.2 892.96,366.048 892.016,368.08 C891.072,370.112 889.656,371.944 887.768,373.576 Z M921.512,397.24 C923.656,397.24 925.616,396.424 927.392,394.792 C929.168,393.16 930.376,391.016 931.016,388.36 C933.32,388.264 935.432,387.88 937.352,387.208 C937.832,387.048 938.184,386.752 938.408,386.32 C938.632,385.888 938.744,385.272 938.744,384.472 C938.744,383.832 938.632,383.304 938.408,382.888 C938.184,382.472 937.864,382.264 937.448,382.264 C937.192,382.264 936.968,382.296 936.776,382.36 C934.696,382.904 932.904,383.224 931.4,383.32 C931.144,380.952 930.344,378.96 929,377.344 C927.656,375.728 925.912,374.84 923.768,374.68 C926.072,371.832 927.72,369.112 928.712,366.52 C929.704,363.928 930.2,361.32 930.2,358.696 C930.2,356.68 929.752,355.04 928.856,353.776 C927.96,352.512 926.776,351.88 925.304,351.88 C922.584,351.88 920.24,353.584 918.272,356.992 C916.304,360.4 914.808,364.528 913.784,369.376 C912.76,374.224 912.248,378.712 912.248,382.84 C912.248,387.512 912.984,391.08 914.456,393.544 C915.928,396.008 918.28,397.24 921.512,397.24 Z M918.584,377.944 C918.904,374.072 919.384,370.504 920.024,367.24 C920.664,363.976 921.36,361.392 922.112,359.488 C922.864,357.584 923.56,356.632 924.2,356.632 C924.616,356.632 924.944,356.904 925.184,357.448 C925.424,357.992 925.544,358.776 925.544,359.8 C925.544,362.104 924.912,364.736 923.648,367.696 C922.384,370.656 920.696,374.072 918.584,377.944 Z M921.704,392.152 C920.776,392.152 919.968,391.672 919.28,390.712 C918.592,389.752 918.248,388.36 918.248,386.536 C918.248,384.36 918.688,382.624 919.568,381.328 C920.448,380.032 921.544,379.384 922.856,379.384 L922.856,379.384 L923,379.384 C922.872,380.152 922.808,380.76 922.808,381.208 C922.808,382.424 923.072,383.576 923.6,384.664 C924.128,385.752 924.888,386.632 925.88,387.304 C925.624,388.872 925.112,390.072 924.344,390.904 C923.576,391.736 922.696,392.152 921.704,392.152 Z M942.968,397.24 C945.24,397.24 947.272,396.432 949.064,394.816 C950.856,393.2 952.056,391.048 952.664,388.36 C954.968,388.264 957.08,387.88 959,387.208 C959.928,386.92 960.392,386.008 960.392,384.472 C960.392,383.832 960.28,383.304 960.056,382.888 C959.832,382.472 959.512,382.264 959.096,382.264 C958.904,382.264 958.68,382.296 958.424,382.36 C956.344,382.904 954.552,383.224 953.048,383.32 C952.792,380.856 951.92,378.784 950.432,377.104 C948.944,375.424 946.984,374.584 944.552,374.584 C942.568,374.584 940.76,375.12 939.128,376.192 C937.496,377.264 936.216,378.752 935.288,380.656 C934.36,382.56 933.896,384.728 933.896,387.16 C933.896,388.952 934.248,390.616 934.952,392.152 C935.656,393.688 936.688,394.92 938.048,395.848 C939.408,396.776 941.048,397.24 942.968,397.24 Z M943.352,392.152 C942.424,392.152 941.616,391.688 940.928,390.76 C940.24,389.832 939.896,388.488 939.896,386.728 C939.896,384.488 940.32,382.752 941.168,381.52 C942.016,380.288 943.08,379.672 944.36,379.672 L944.36,379.672 L944.6,379.672 C944.504,380.184 944.456,380.696 944.456,381.208 C944.456,382.424 944.72,383.576 945.248,384.664 C945.776,385.752 946.536,386.632 947.528,387.304 C947.272,388.872 946.768,390.072 946.016,390.904 C945.264,391.736 944.376,392.152 943.352,392.152 Z M962.552,371.464 C963.928,371.464 965.032,371.088 965.864,370.336 C966.696,369.584 967.112,368.568 967.112,367.288 C967.112,366.232 966.744,365.416 966.008,364.84 C965.272,364.264 964.312,363.976 963.128,363.976 C961.816,363.976 960.72,364.352 959.84,365.104 C958.96,365.856 958.52,366.792 958.52,367.912 C958.52,369.032 958.856,369.904 959.528,370.528 C960.2,371.152 961.208,371.464 962.552,371.464 Z M962.168,397.24 C964.92,397.24 967.88,395.304 971.048,391.432 C971.656,390.728 971.96,389.736 971.96,388.456 C971.96,387.784 971.84,387.256 971.6,386.872 C971.36,386.488 971.032,386.296 970.616,386.296 C970.136,386.296 969.704,386.52 969.32,386.968 C967.88,388.696 966.728,389.96 965.864,390.76 C965,391.56 964.28,391.96 963.704,391.96 C963.096,391.96 962.664,391.704 962.408,391.192 C962.152,390.68 962.024,389.944 962.024,388.984 C962.024,387.736 962.408,385.352 963.176,381.832 C963.784,378.92 964.088,377.064 964.088,376.264 C964.088,375.176 963.272,374.632 961.64,374.632 C960.584,374.632 959.816,374.824 959.336,375.208 C958.856,375.592 958.472,376.296 958.184,377.32 C957.608,379.272 957.136,381.376 956.768,383.632 C956.4,385.888 956.216,387.736 956.216,389.176 C956.216,391.608 956.688,393.56 957.632,395.032 C958.576,396.504 960.088,397.24 962.168,397.24 Z M976.712,397.24 C978.76,397.24 980.592,396.696 982.208,395.608 C983.824,394.52 985.32,393.128 986.696,391.432 C987.304,390.728 987.608,389.736 987.608,388.456 C987.608,387.784 987.488,387.256 987.248,386.872 C987.008,386.488 986.68,386.296 986.264,386.296 C985.784,386.296 985.352,386.52 984.968,386.968 C983.432,388.792 982.168,390.08 981.176,390.832 C980.184,391.584 979.032,391.96 977.72,391.96 C976.888,391.96 976.216,391.68 975.704,391.12 C975.192,390.56 974.824,389.624 974.6,388.312 C978.216,383.384 981.08,378.408 983.192,373.384 C985.304,368.36 986.36,363.944 986.36,360.136 C986.36,357.48 985.92,355.44 985.04,354.016 C984.16,352.592 982.952,351.88 981.416,351.88 C978.696,351.88 976.352,353.672 974.384,357.256 C972.416,360.84 970.928,365.128 969.92,370.12 C968.912,375.112 968.408,379.56 968.408,383.464 C968.408,387.528 969.088,390.84 970.448,393.4 C971.808,395.96 973.896,397.24 976.712,397.24 Z M974.264,381.832 C974.328,378.216 974.712,374.44 975.416,370.504 C976.12,366.568 976.936,363.272 977.864,360.616 C978.792,357.96 979.624,356.632 980.36,356.632 C981.256,356.632 981.704,357.848 981.704,360.28 C981.704,363.384 981.032,366.816 979.688,370.576 C978.344,374.336 976.536,378.088 974.264,381.832 Z M993.608,397.24 C996.072,397.24 998.384,396.632 1000.544,395.416 C1002.704,394.2 1004.376,392.872 1005.56,391.432 C1006.168,390.728 1006.472,389.736 1006.472,388.456 C1006.472,387.784 1006.352,387.256 1006.112,386.872 C1005.872,386.488 1005.544,386.296 1005.128,386.296 C1004.648,386.296 1004.216,386.52 1003.832,386.968 C1002.488,388.6 1000.896,389.92 999.056,390.928 C997.216,391.936 995.576,392.44 994.136,392.44 C991.896,392.44 990.376,391.704 989.576,390.232 C993.352,389.304 996.032,388.048 997.616,386.464 C999.2,384.88 999.992,382.984 999.992,380.776 C999.992,378.888 999.432,377.392 998.312,376.288 C997.192,375.184 995.704,374.632 993.848,374.632 C991.768,374.632 989.904,375.192 988.256,376.312 C986.608,377.432 985.32,378.944 984.392,380.848 C983.464,382.752 983,384.808 983,387.016 C983,390.184 983.928,392.68 985.784,394.504 C987.64,396.328 990.248,397.24 993.608,397.24 Z M988.808,386.488 L988.808,386.392 C988.808,384.44 989.216,382.776 990.032,381.4 C990.848,380.024 991.848,379.336 993.032,379.336 C993.608,379.336 994.064,379.52 994.4,379.888 C994.736,380.256 994.904,380.744 994.904,381.352 C994.904,382.536 994.36,383.576 993.272,384.472 C992.184,385.368 990.696,386.04 988.808,386.488 L988.808,386.488 Z M1005.992,397.24 C1006.984,397.24 1007.712,396.976 1008.176,396.448 C1008.64,395.92 1009.048,394.904 1009.4,393.4 C1009.88,391.448 1010.504,389.592 1011.272,387.832 C1012.04,386.072 1012.816,384.656 1013.6,383.584 C1014.384,382.512 1015.016,381.976 1015.496,381.976 C1015.848,381.976 1016.024,382.232 1016.024,382.744 C1016.024,382.968 1015.992,383.4 1015.928,384.04 C1015.832,384.52 1015.784,385 1015.784,385.48 C1015.784,386.952 1016.224,388.12 1017.104,388.984 C1017.984,389.848 1019.272,390.28 1020.968,390.28 C1022.312,390.28 1023.584,389.952 1024.784,389.296 C1025.984,388.64 1027.032,387.848 1027.928,386.92 C1028.568,386.248 1028.888,385.32 1028.888,384.136 C1028.888,383.528 1028.768,383.04 1028.528,382.672 C1028.288,382.304 1027.96,382.12 1027.544,382.12 C1027.096,382.12 1026.664,382.328 1026.248,382.744 C1024.84,384.152 1023.688,384.856 1022.792,384.856 C1021.992,384.856 1021.592,384.296 1021.592,383.176 C1021.592,382.856 1021.72,382.056 1021.976,380.776 C1022.264,379.176 1022.408,378.168 1022.408,377.752 C1022.408,375.672 1021.368,374.632 1019.288,374.632 C1018.232,374.632 1017.072,375 1015.808,375.736 C1014.544,376.472 1013.256,377.704 1011.944,379.432 C1010.632,381.16 1009.448,383.4 1008.392,386.152 C1008.52,384.744 1008.68,383.56 1008.872,382.6 C1009.064,381.64 1009.32,380.52 1009.64,379.24 C1010.12,377.448 1010.36,376.296 1010.36,375.784 C1010.36,375.336 1010.232,375.032 1009.976,374.872 C1009.72,374.712 1009.272,374.632 1008.632,374.632 C1007.448,374.632 1006.528,374.848 1005.872,375.28 C1005.216,375.712 1004.744,376.392 1004.456,377.32 C1003.272,381.064 1002.68,385.016 1002.68,389.176 C1002.68,391.992 1002.928,394.04 1003.424,395.32 C1003.92,396.6 1004.776,397.24 1005.992,397.24 Z M1021.496,418.936 C1024.344,418.936 1026.504,416.864 1027.976,412.72 C1029.448,408.576 1030.392,403.416 1030.808,397.24 C1032.792,397.208 1034.696,396.6 1036.52,395.416 C1037.576,396.632 1038.952,397.24 1040.648,397.24 C1042.664,397.24 1044.464,396.696 1046.048,395.608 C1047.632,394.52 1049.112,393.128 1050.488,391.432 C1051.096,390.728 1051.4,389.736 1051.4,388.456 C1051.4,387.784 1051.28,387.256 1051.04,386.872 C1050.8,386.488 1050.472,386.296 1050.056,386.296 C1049.576,386.296 1049.144,386.52 1048.76,386.968 C1047.256,388.76 1046.024,390.04 1045.064,390.808 C1044.104,391.576 1043.096,391.96 1042.04,391.96 C1041.592,391.96 1041.032,391.864 1040.36,391.672 C1041.32,390.36 1042.072,388.904 1042.616,387.304 C1043.16,385.704 1043.432,384.056 1043.432,382.36 C1043.432,380.024 1042.864,378.136 1041.728,376.696 C1040.592,375.256 1039.128,374.536 1037.336,374.536 C1036.216,374.536 1035.16,374.816 1034.168,375.376 C1033.176,375.936 1032.168,376.856 1031.144,378.136 C1031.112,377.752 1031.096,377.16 1031.096,376.36 C1031.064,375.56 1030.896,375.024 1030.592,374.752 C1030.288,374.48 1029.8,374.344 1029.128,374.344 C1027.976,374.344 1027.016,374.616 1026.248,375.16 C1025.48,375.704 1025.112,376.44 1025.144,377.368 C1025.20343,379.061714 1025.23527,381.983265 1025.23951,386.132653 L1025.24,387.112 C1022.232,392.136 1020.008,396.736 1018.568,400.912 C1017.128,405.088 1016.408,408.744 1016.408,411.88 C1016.408,414.088 1016.824,415.816 1017.656,417.064 C1018.488,418.312 1019.768,418.936 1021.496,418.936 Z M1031.048,392.632 C1031.08,391.832 1031.096,390.696 1031.096,389.224 C1031.096,386.504 1031.112,384.44 1031.144,383.032 C1032.776,380.6 1034.168,379.384 1035.32,379.384 C1035.96,379.384 1036.472,379.632 1036.856,380.128 C1037.24,380.624 1037.432,381.352 1037.432,382.312 C1037.432,383.944 1037.144,385.504 1036.568,386.992 C1035.992,388.48 1035.216,389.728 1034.24,390.736 C1033.264,391.744 1032.2,392.376 1031.048,392.632 Z M1021.88,414.232 C1021.56,414.232 1021.28,413.96 1021.04,413.416 C1020.8,412.872 1020.68,412.088 1020.68,411.064 C1020.68,409.08 1021.08,406.632 1021.88,403.72 C1022.68,400.808 1023.768,397.752 1025.144,394.552 C1024.984,400.152 1024.616,404.832 1024.04,408.592 C1023.464,412.352 1022.744,414.232 1021.88,414.232 Z M1064.6,397.24 C1065.976,397.24 1067.4,396.68 1068.872,395.56 C1070.344,394.44 1071.736,393.064 1073.048,391.432 C1073.656,390.728 1073.96,389.736 1073.96,388.456 C1073.96,387.784 1073.84,387.256 1073.6,386.872 C1073.36,386.488 1073.032,386.296 1072.616,386.296 C1072.136,386.296 1071.704,386.52 1071.32,386.968 C1069.848,388.728 1068.68,390 1067.816,390.784 C1066.952,391.568 1066.216,391.96 1065.608,391.96 C1065.224,391.96 1064.912,391.816 1064.672,391.528 C1064.432,391.24 1064.312,390.856 1064.312,390.376 C1064.312,388.936 1064.68,386.376 1065.416,382.696 C1065.896,380.168 1066.136,378.568 1066.136,377.896 C1066.136,376.776 1065.352,376.216 1063.784,376.216 C1063.048,376.216 1062.344,376.28 1061.672,376.408 C1061.512,375.704 1061.312,375.216 1061.072,374.944 C1060.832,374.672 1060.36,374.536 1059.656,374.536 C1057.448,374.536 1055.36,375.232 1053.392,376.624 C1051.424,378.016 1049.848,379.856 1048.664,382.144 C1047.48,384.432 1046.888,386.856 1046.888,389.416 C1046.888,391.752 1047.48,393.64 1048.664,395.08 C1049.848,396.52 1051.432,397.24 1053.416,397.24 C1055.944,397.24 1058.04,395.896 1059.704,393.208 C1060.152,394.456 1060.816,395.44 1061.696,396.16 C1062.576,396.88 1063.544,397.24 1064.6,397.24 Z M1055.144,392.392 C1054.44,392.392 1053.888,392.152 1053.488,391.672 C1053.088,391.192 1052.888,390.456 1052.888,389.464 C1052.888,387.672 1053.224,385.976 1053.896,384.376 C1054.568,382.776 1055.472,381.488 1056.608,380.512 C1057.744,379.536 1058.984,379.032 1060.328,379 L1060.328,379 L1058.552,387.832 C1058.264,389.208 1057.8,390.312 1057.16,391.144 C1056.52,391.976 1055.848,392.392 1055.144,392.392 Z M1079.24,397.24 C1081.192,397.24 1083.216,396.736 1085.312,395.728 C1087.408,394.72 1089.208,393.288 1090.712,391.432 C1091.32,390.664 1091.624,389.672 1091.624,388.456 C1091.624,387.784 1091.504,387.256 1091.264,386.872 C1091.024,386.488 1090.696,386.296 1090.28,386.296 C1089.8,386.296 1089.368,386.52 1088.984,386.968 C1087.512,388.728 1086.016,390.048 1084.496,390.928 C1082.976,391.808 1081.56,392.248 1080.248,392.248 C1077.016,392.248 1075.4,390.392 1075.4,386.68 C1075.4,385.336 1075.592,384.104 1075.976,382.984 C1076.36,381.864 1076.872,380.976 1077.512,380.32 C1078.152,379.664 1078.84,379.336 1079.576,379.336 C1079.96,379.336 1080.256,379.448 1080.464,379.672 C1080.672,379.896 1080.776,380.216 1080.776,380.632 C1080.776,381.048 1080.696,381.496 1080.536,381.976 C1080.504,382.104 1080.456,382.312 1080.392,382.6 C1080.328,382.888 1080.296,383.144 1080.296,383.368 C1080.296,383.88 1080.48,384.28 1080.848,384.568 C1081.216,384.856 1081.704,385 1082.312,385 C1083.272,385 1084.048,384.536 1084.64,383.608 C1085.232,382.68 1085.528,381.544 1085.528,380.2 C1085.528,378.568 1085.04,377.232 1084.064,376.192 C1083.088,375.152 1081.72,374.632 1079.96,374.632 C1078.168,374.632 1076.456,375.16 1074.824,376.216 C1073.192,377.272 1071.864,378.776 1070.84,380.728 C1069.816,382.68 1069.304,384.952 1069.304,387.544 C1069.304,390.456 1070.176,392.8 1071.92,394.576 C1073.664,396.352 1076.104,397.24 1079.24,397.24 Z M1105.928,397.24 C1107.272,397.24 1108.304,396.928 1109.024,396.304 C1109.744,395.68 1110.104,394.968 1110.104,394.168 C1110.104,392.984 1109.448,392.264 1108.136,392.008 C1106.824,391.752 1105.872,391.44 1105.28,391.072 C1104.688,390.704 1104.296,390.04 1104.104,389.08 C1106.28,387.928 1107.816,386.616 1108.712,385.144 C1109.608,383.672 1110.056,382.056 1110.056,380.296 C1110.056,378.696 1109.568,377.352 1108.592,376.264 C1107.616,375.176 1106.328,374.632 1104.728,374.632 C1103,374.632 1101.144,375.536 1099.16,377.344 C1097.176,379.152 1095.416,382.056 1093.88,386.056 C1093.88,384.296 1093.928,382.584 1094.024,380.92 C1098.28,376.28 1101.352,372.224 1103.24,368.752 C1105.128,365.28 1106.072,361.928 1106.072,358.696 C1106.072,356.68 1105.616,355.04 1104.704,353.776 C1103.792,352.512 1102.6,351.88 1101.128,351.88 C1098.376,351.88 1096.016,353.696 1094.048,357.328 C1092.08,360.96 1090.592,365.448 1089.584,370.792 C1088.576,376.136 1088.072,381.272 1088.072,386.2 C1088.072,389.112 1088.152,391.32 1088.312,392.824 C1088.472,394.328 1088.784,395.44 1089.248,396.16 C1089.712,396.88 1090.44,397.24 1091.432,397.24 C1092.424,397.24 1093.152,396.976 1093.616,396.448 C1094.08,395.92 1094.488,394.904 1094.84,393.4 C1095.352,391.32 1096.056,389.296 1096.952,387.328 C1097.848,385.36 1098.816,383.752 1099.856,382.504 C1100.896,381.256 1101.848,380.632 1102.712,380.632 C1103.064,380.632 1103.36,380.776 1103.6,381.064 C1103.84,381.352 1103.96,381.784 1103.96,382.36 C1103.96,383.352 1103.656,384.192 1103.048,384.88 C1102.44,385.568 1101.432,386.216 1100.024,386.824 C1098.744,387.368 1098.104,388.264 1098.104,389.512 C1098.104,391.816 1098.832,393.68 1100.288,395.104 C1101.744,396.528 1103.624,397.24 1105.928,397.24 Z M1094.552,374.92 C1094.968,371.624 1095.504,368.576 1096.16,365.776 C1096.816,362.976 1097.496,360.752 1098.2,359.104 C1098.904,357.456 1099.544,356.632 1100.12,356.632 C1100.536,356.632 1100.856,356.904 1101.08,357.448 C1101.304,357.992 1101.416,358.776 1101.416,359.8 C1101.416,362.04 1100.768,364.536 1099.472,367.288 C1098.176,370.04 1096.536,372.584 1094.552,374.92 Z" id="nextboilerpack"></path>
        </g>
    </g>
</svg>
