<svg xmlns="http://www.w3.org/2000/svg" width="613" height="312" viewBox="0 0 613 312">
  <g fill="none" fill-rule="evenodd" transform="translate(0 2.65)">
    <path fill="#C9C9C9" fill-rule="nonzero" d="M603.886541,308.328261 L8.8256651,308.328261 C4.02910798,308.328261 0.191862285,304.489752 0.191862285,299.691615 L0.191862285,299.691615 C0.191862285,294.893478 4.02910798,291.054969 8.8256651,291.054969 L603.886541,291.054969 C608.683099,291.054969 612.520344,294.893478 612.520344,299.691615 L612.520344,299.691615 C612.520344,304.489752 608.683099,308.328261 603.886541,308.328261 Z"/>
    <g transform="translate(21.105)">
      <g transform="translate(76.745 179.45)">
        <path fill="#CECECE" fill-rule="nonzero" d="M22.927543,39.6326087 C13.7181534,39.6326087 6.3314554,32.1475155 6.3314554,23.0310559 C6.3314554,13.9145963 13.8140845,6.42950311 22.927543,6.42950311 L116.940063,6.42950311 L116.940063,39.7285714 L22.927543,39.7285714 L22.927543,39.6326087 Z"/>
        <path fill="#FFF" fill-rule="nonzero" d="M122.408138,45.3903727 L22.927543,45.3903727 C10.5524257,45.3903727 0.575586854,35.3142857 0.575586854,23.0310559 L0.575586854,23.0310559 C0.575586854,10.6518634 10.6483568,0.67173913 22.927543,0.67173913 L122.408138,0.67173913 L122.408138,45.3903727 L122.408138,45.3903727 Z"/>
        <line x1="16.788" x2="116.94" y1="17.849" y2="17.849" stroke="#1F3969" stroke-linecap="round" stroke-linejoin="round" stroke-width="4"/>
        <line x1="16.788" x2="116.94" y1="28.021" y2="28.021" stroke="#1F3969" stroke-linecap="round" stroke-linejoin="round" stroke-width="4"/>
        <path stroke="#1F3969" stroke-linecap="round" stroke-linejoin="round" stroke-width="4" d="M22.927543,39.6326087 C13.7181534,39.6326087 6.3314554,32.1475155 6.3314554,23.0310559 C6.3314554,13.9145963 13.8140845,6.42950311 22.927543,6.42950311 L116.940063,6.42950311 L116.940063,39.7285714 L22.927543,39.7285714 L22.927543,39.6326087 Z"/>
        <path fill="#FF3E3E" fill-rule="nonzero" d="M22.927543,39.6326087 C13.7181534,39.6326087 6.3314554,32.1475155 6.3314554,23.0310559 C6.3314554,13.9145963 13.8140845,6.42950311 22.927543,6.42950311 L118.570892,6.42950311 L122.408138,0.67173913 L22.927543,0.67173913 C10.5524257,0.67173913 0.575586854,10.7478261 0.575586854,23.0310559 L0.575586854,23.0310559 C0.575586854,35.4102484 10.6483568,45.3903727 22.927543,45.3903727 L122.408138,45.3903727 L118.570892,39.6326087 L22.927543,39.6326087 Z"/>
        <path stroke="#1F3969" stroke-linecap="round" stroke-linejoin="round" stroke-width="4" d="M22.927543,39.6326087 C13.7181534,39.6326087 6.3314554,32.1475155 6.3314554,23.0310559 C6.3314554,13.9145963 13.8140845,6.42950311 22.927543,6.42950311 L118.570892,6.42950311 L122.408138,0.67173913 L22.927543,0.67173913 C10.5524257,0.67173913 0.575586854,10.7478261 0.575586854,23.0310559 L0.575586854,23.0310559 C0.575586854,35.4102484 10.6483568,45.3903727 22.927543,45.3903727 L122.408138,45.3903727 L118.570892,39.6326087 L22.927543,39.6326087 Z"/>
        <rect width="17.651" height="44.815" x="83.364" y=".576" fill="#1F3969" fill-rule="nonzero" stroke="#1F3969" stroke-linecap="round" stroke-linejoin="round" stroke-width="4" opacity=".28"/>
      </g>
      <g transform="translate(0 224.553)">
        <path fill="#6046F1" fill-rule="nonzero" d="M188.888419,37.2335404 L6.71517997,37.2335404 C3.1657277,37.2335404 0.191862285,34.3546584 0.191862285,30.7080745 L0.191862285,6.7173913 C0.191862285,3.16677019 3.06979656,0.191925466 6.71517997,0.191925466 L188.888419,0.191925466 C192.437872,0.191925466 195.411737,3.07080745 195.411737,6.7173913 L195.411737,30.7080745 C195.411737,34.3546584 192.533803,37.2335404 188.888419,37.2335404 Z"/>
        <path stroke="#1F3969" stroke-linecap="round" stroke-linejoin="round" stroke-width="4" d="M188.888419,37.2335404 L6.71517997,37.2335404 C3.1657277,37.2335404 0.191862285,34.3546584 0.191862285,30.7080745 L0.191862285,6.7173913 C0.191862285,3.16677019 3.06979656,0.191925466 6.71517997,0.191925466 L188.888419,0.191925466 C192.437872,0.191925466 195.411737,3.07080745 195.411737,6.7173913 L195.411737,30.7080745 C195.411737,34.3546584 192.533803,37.2335404 188.888419,37.2335404 Z"/>
      </g>
      <path fill="#1F3969" fill-rule="nonzero" stroke="#1F3969" stroke-linecap="round" stroke-linejoin="round" stroke-width="4" d="M188.888419,224.840683 L160.109077,224.840683 L160.109077,239.235093 C160.109077,248.25559 167.399844,255.64472 176.513302,255.64472 L195.411737,255.64472 C195.411737,255.548758 195.411737,255.452795 195.411737,255.356832 L195.411737,231.366149 C195.411737,227.719565 192.533803,224.840683 188.888419,224.840683 Z" opacity=".28"/>
      <path fill="#CECECE" fill-rule="nonzero" d="M240.211581,269.271429 L29.1630673,269.271429 C30.4101721,272.342236 31.0816901,276.180745 31.0816901,280.21118 C31.0816901,284.241615 30.4101721,287.984161 29.1630673,291.150932 L240.115649,291.150932 C238.868545,288.080124 238.197027,284.241615 238.197027,280.21118 C238.292958,276.084783 238.964476,272.342236 240.211581,269.271429 Z"/>
      <rect width="222.464" height="5.758" x="23.503" y="263.418" fill="#5F5AFF" fill-rule="nonzero"/>
      <rect width="222.464" height="5.758" x="23.503" y="263.418" stroke="#1F3969" stroke-linecap="round" stroke-linejoin="round" stroke-width="4"/>
      <rect width="222.464" height="5.758" x="23.503" y="291.055" fill="#F6F9FD" fill-rule="nonzero"/>
      <rect width="222.464" height="5.758" x="23.503" y="291.055" fill="#5F5AFF" fill-rule="nonzero"/>
      <rect width="222.464" height="5.758" x="23.503" y="291.055" stroke="#1F3969" stroke-linecap="round" stroke-linejoin="round" stroke-width="4"/>
      <path fill="#BFCFE2" fill-rule="nonzero" d="M356.480125,276.372671 L353.602191,244.03323 L306.212207,244.03323 L303.334272,276.372671 C302.662754,283.857764 298.153991,291.054969 291.055086,296.812733 L291.055086,296.908696 L368.759311,296.908696 L368.759311,296.812733 C361.660407,291.054969 357.151643,283.857764 356.480125,276.372671 Z"/>
      <polygon fill="#1F3969" fill-rule="nonzero" stroke="#1F3969" stroke-linecap="round" stroke-linejoin="round" stroke-width="4" points="306.212 244.033 304.485 263.418 355.329 263.418 353.602 244.033" opacity=".28"/>
      <path stroke="#1F3969" stroke-linecap="round" stroke-linejoin="round" stroke-width="4" d="M356.480125,276.372671 L353.602191,244.03323 L306.212207,244.03323 L303.334272,276.372671 C302.662754,283.857764 298.153991,291.054969 291.055086,296.812733 L291.055086,296.908696 L368.759311,296.908696 L368.759311,296.812733 C361.660407,291.054969 357.151643,283.857764 356.480125,276.372671 Z"/>
      <path fill="#FFF" fill-rule="nonzero" d="M481.478404,248.831366 L178.335994,248.831366 C172.004538,248.831366 166.824257,243.649379 166.824257,237.315839 L166.824257,39.6326087 C166.824257,33.2990683 172.004538,28.1170807 178.335994,28.1170807 L481.478404,28.1170807 C487.809859,28.1170807 492.990141,33.2990683 492.990141,39.6326087 L492.990141,237.315839 C492.990141,243.745342 487.809859,248.831366 481.478404,248.831366 Z"/>
      <path fill="#BFCFE2" fill-rule="nonzero" d="M481.478404,248.831366 L178.335994,248.831366 C172.004538,248.831366 166.824257,243.649379 166.824257,237.315839 L166.824257,39.6326087 C166.824257,33.2990683 172.004538,28.1170807 178.335994,28.1170807 L481.478404,28.1170807 C487.809859,28.1170807 492.990141,33.2990683 492.990141,39.6326087 L492.990141,237.315839 C492.990141,243.745342 487.809859,248.831366 481.478404,248.831366 Z"/>
      <path stroke="#1F3969" stroke-linecap="round" stroke-linejoin="round" stroke-width="4" d="M481.478404,248.831366 L178.335994,248.831366 C172.004538,248.831366 166.824257,243.649379 166.824257,237.315839 L166.824257,39.6326087 C166.824257,33.2990683 172.004538,28.1170807 178.335994,28.1170807 L481.478404,28.1170807 C487.809859,28.1170807 492.990141,33.2990683 492.990141,39.6326087 L492.990141,237.315839 C492.990141,243.745342 487.809859,248.831366 481.478404,248.831366 Z"/>
      <polygon fill="#F6F9FD" fill-rule="nonzero" points="246.185 -18.541 413.736 -18.541 413.736 275.008 246.185 275.008" transform="rotate(90 329.96 128.233)"/>
      <path fill="#1F3969" fill-rule="nonzero" stroke="#1F3969" stroke-linecap="round" stroke-linejoin="round" stroke-width="4" d="M193.684977,28.1170807 L193.684977,161.121429 C193.684977,165.343789 197.138498,168.798447 201.359468,168.798447 L382.765258,168.798447 C386.986228,168.798447 390.43975,165.343789 390.43975,161.121429 L390.43975,28.1170807 L193.684977,28.1170807 Z" opacity=".28"/>
      <polygon stroke="#1F3969" stroke-linecap="round" stroke-linejoin="round" stroke-width="4" points="246.185 -18.541 413.736 -18.541 413.736 275.008 246.185 275.008" transform="rotate(90 329.96 128.233)"/>
      <line x1="317.052" x2="342.858" y1="230.311" y2="230.311" stroke="#1F3969" stroke-linecap="round" stroke-linejoin="round" stroke-width="4"/>
      <path fill="#2D425E" fill-rule="nonzero" d="M391.399061,158.242547 L209.993271,158.242547 C205.7723,158.242547 202.318779,154.787888 202.318779,150.565528 L202.318779,8.34875776 C202.318779,4.12639752 205.7723,0.67173913 209.993271,0.67173913 L391.399061,0.67173913 C395.620031,0.67173913 399.073552,4.12639752 399.073552,8.34875776 L399.073552,150.661491 C399.073552,154.883851 395.620031,158.242547 391.399061,158.242547 Z"/>
      <path stroke="#1F3969" stroke-linecap="round" stroke-linejoin="round" stroke-width="4" d="M399.073552,19.2885093 L202.318779,19.2885093 L202.318779,8.25279503 C202.318779,4.03043478 205.7723,0.575776398 209.993271,0.575776398 L391.399061,0.575776398 C395.620031,0.575776398 399.073552,4.03043478 399.073552,8.25279503 L399.073552,19.2885093 Z"/>
      <path fill="#D0DDF0" fill-rule="nonzero" d="M399.073552,22.9350932 L202.318779,22.9350932 L202.318779,8.25279503 C202.318779,4.03043478 205.7723,0.575776398 209.993271,0.575776398 L391.399061,0.575776398 C395.620031,0.575776398 399.073552,4.03043478 399.073552,8.25279503 L399.073552,22.9350932 Z"/>
      <path stroke="#1F3969" stroke-linecap="round" stroke-linejoin="round" stroke-width="4" d="M399.073552,22.9350932 L202.318779,22.9350932 L202.318779,8.25279503 C202.318779,4.03043478 205.7723,0.575776398 209.993271,0.575776398 L391.399061,0.575776398 C395.620031,0.575776398 399.073552,4.03043478 399.073552,8.25279503 L399.073552,22.9350932 Z"/>
      <path stroke="#1F3969" stroke-linecap="round" stroke-linejoin="round" stroke-width="4" d="M399.073552,22.9350932 L202.318779,22.9350932 L202.318779,8.25279503 C202.318779,4.03043478 205.7723,0.575776398 209.993271,0.575776398 L391.399061,0.575776398 C395.620031,0.575776398 399.073552,4.03043478 399.073552,8.25279503 L399.073552,22.9350932 Z"/>
      <path stroke="#1F3969" stroke-linecap="round" stroke-linejoin="round" stroke-width="4" d="M391.399061,158.242547 L209.993271,158.242547 C205.7723,158.242547 202.318779,154.787888 202.318779,150.565528 L202.318779,8.34875776 C202.318779,4.12639752 205.7723,0.67173913 209.993271,0.67173913 L391.399061,0.67173913 C395.620031,0.67173913 399.073552,4.12639752 399.073552,8.34875776 L399.073552,150.661491 C399.073552,154.883851 395.620031,158.242547 391.399061,158.242547 Z"/>
      <g transform="translate(366.457 51.82)">
        <path fill="#1F3969" fill-rule="nonzero" stroke="#1F3969" stroke-linecap="round" stroke-linejoin="round" stroke-width="4" d="M119.626135,140.393478 L8.34600939,140.393478 C4.12503912,140.393478 0.671517997,136.93882 0.671517997,132.71646 L0.671517997,14.7782609 C0.671517997,10.5559006 4.12503912,7.10124224 8.34600939,7.10124224 L119.626135,7.10124224 C123.847105,7.10124224 127.300626,10.5559006 127.300626,14.7782609 L127.300626,132.71646 C127.300626,137.034783 123.847105,140.393478 119.626135,140.393478 Z" opacity=".28"/>
        <path fill="#6046F1" fill-rule="nonzero" d="M127.300626,133.676087 L16.0205008,133.676087 C11.7995305,133.676087 8.34600939,130.221429 8.34600939,125.999068 L8.34600939,8.06086957 C8.34600939,3.83850932 11.7995305,0.383850932 16.0205008,0.383850932 L127.300626,0.383850932 C131.521596,0.383850932 134.975117,3.83850932 134.975117,8.06086957 L134.975117,125.999068 C134.975117,130.317391 131.521596,133.676087 127.300626,133.676087 Z"/>
        <path stroke="#1F3969" stroke-linecap="round" stroke-linejoin="round" stroke-width="4" d="M127.300626,133.676087 L16.0205008,133.676087 C11.7995305,133.676087 8.34600939,130.221429 8.34600939,125.999068 L8.34600939,8.06086957 C8.34600939,3.83850932 11.7995305,0.383850932 16.0205008,0.383850932 L127.300626,0.383850932 C131.521596,0.383850932 134.975117,3.83850932 134.975117,8.06086957 L134.975117,125.999068 C134.975117,130.317391 131.521596,133.676087 127.300626,133.676087 Z"/>
        <path stroke="#FFF" stroke-linecap="round" stroke-linejoin="round" stroke-width="2" d="M110.704538,36.9456522 L32.4247261,36.9456522 C29.642723,36.9456522 27.4363067,34.7385093 27.4363067,31.9555901 L27.4363067,24.4704969 C27.4363067,21.6875776 29.642723,19.4804348 32.4247261,19.4804348 L110.704538,19.4804348 C113.486541,19.4804348 115.692958,21.6875776 115.692958,24.4704969 L115.692958,31.9555901 C115.692958,34.7385093 113.486541,36.9456522 110.704538,36.9456522 Z" opacity=".34"/>
        <path stroke="#FFF" stroke-linecap="round" stroke-linejoin="round" stroke-width="2" d="M49.5004695 18.0409938L5.75586854 18.0409938C2.97386541 18.0409938.767449139 15.8338509.767449139 13.0509317L.767449139 5.56583851C.767449139 2.78291925 2.97386541.575776398 5.75586854.575776398L49.5004695.575776398C52.2824726.575776398 54.4888889 2.78291925 54.4888889 5.56583851L54.4888889 13.0509317C54.3929577 15.8338509 52.1865415 18.0409938 49.5004695 18.0409938zM83.9397496 18.0409938L66.9599374 18.0409938C64.1779343 18.0409938 61.971518 15.8338509 61.971518 13.0509317L61.971518 5.56583851C61.971518 2.78291925 64.1779343.575776398 66.9599374.575776398L83.9397496.575776398C86.7217527.575776398 88.928169 2.78291925 88.928169 5.56583851L88.928169 13.0509317C88.928169 15.8338509 86.7217527 18.0409938 83.9397496 18.0409938z" opacity=".34" transform="translate(26.86 47.022)"/>
        <g stroke="#FFF" stroke-linecap="round" stroke-linejoin="round" stroke-width="2" transform="translate(26.86 93.084)">
          <line x1=".672" x2="88.832" y1="1.152" y2="1.152"/>
          <line x1=".672" x2="88.832" y1="11.516" y2="11.516"/>
          <line x1=".672" x2="54.393" y1="21.88" y2="21.88"/>
        </g>
      </g>
      <ellipse cx="221.601" cy="11.803" fill="#1F3969" fill-rule="nonzero" rx="3.837" ry="3.839"/>
      <ellipse cx="234.935" cy="11.803" fill="#1F3969" fill-rule="nonzero" rx="3.837" ry="3.839"/>
      <ellipse cx="248.27" cy="11.803" fill="#1F3969" fill-rule="nonzero" rx="3.837" ry="3.839"/>
      <g stroke-linecap="round" stroke-linejoin="round" stroke-width="4" transform="translate(225.438 40.17)">
        <line x1="89.887" x2="102.359" y1=".517" y2=".517" stroke="#FFF"/>
        <line x1="26.669" x2="80.678" y1=".517" y2=".517" stroke="#7BFFA0"/>
        <line x2="18.994" y1=".517" y2=".517" stroke="#9169FF"/>
      </g>
      <g stroke-linecap="round" stroke-linejoin="round" stroke-width="4" transform="translate(225.438 134.348)">
        <line x1="24.75" x2="66.001" y1=".864" y2=".864" stroke="#9169FF"/>
        <line x2="13.334" y1=".864" y2=".864" stroke="#7BFFA0"/>
      </g>
      <g stroke-linecap="round" stroke-linejoin="round" stroke-width="4" transform="translate(234.898 51.82)">
        <line x1="71.218" x2="78.989" y1=".672" y2=".672" stroke="#FFF"/>
        <line x1="35.915" x2="62.009" y1=".672" y2=".672" stroke="#9169FF"/>
        <line x1=".037" x2="26.61" y1=".672" y2=".672" stroke="#FFC47D"/>
      </g>
      <g stroke-linecap="round" stroke-linejoin="round" stroke-width="4" transform="translate(246.543 63.335)">
        <line x1="29.547" x2="52.474" y1=".96" y2=".96" stroke="#FFF"/>
        <line x1=".767" x2="22.352" y1=".96" y2=".96" stroke="#FF5757"/>
      </g>
      <g stroke-linecap="round" stroke-linejoin="round" stroke-width="4" transform="translate(234.898 74.85)">
        <line x1="44.261" x2="48.962" y1="1.248" y2="1.248" stroke="#FFF"/>
        <line x1="25.267" x2="35.915" y1="1.248" y2="1.248" stroke="#9169FF"/>
        <line x1=".037" x2="17.209" y1="1.248" y2="1.248" stroke="#7BFFA0"/>
      </g>
      <g stroke-linecap="round" stroke-linejoin="round" stroke-width="4" transform="translate(234.898 87.326)">
        <line x1="36.875" x2="67.477" y1=".672" y2=".672" stroke="#FFC47D"/>
        <line x1=".037" x2="27.474" y1=".672" y2=".672" stroke="#FF5757"/>
      </g>
      <g stroke-linecap="round" stroke-linejoin="round" stroke-width="4" transform="translate(246.543 98.842)">
        <line x1="60.628" x2="77.225" y1=".96" y2=".96" stroke="#9169FF"/>
        <line x1="25.23" x2="51.803" y1=".96" y2=".96" stroke="#FF5757"/>
        <line x1=".767" x2="15.829" y1=".96" y2=".96" stroke="#7BFFA0"/>
      </g>
      <g stroke-linecap="round" stroke-linejoin="round" stroke-width="4" transform="translate(246.543 110.357)">
        <line x1="37.317" x2="51.803" y1="1.248" y2="1.248" stroke="#FFF"/>
        <line x1=".767" x2="27.34" y1="1.248" y2="1.248" stroke="#9169FF"/>
      </g>
      <g stroke-linecap="round" stroke-linejoin="round" stroke-width="4" transform="translate(234.898 122.832)">
        <line x1="86.663" x2="103.259" y1=".576" y2=".576" stroke="#FFF"/>
        <line x1="35.915" x2="77.646" y1=".576" y2=".576" stroke="#FFC47D"/>
        <line x1=".037" x2="26.61" y1=".576" y2=".576" stroke="#FFF"/>
      </g>
      <line x1="31.561" x2="238.293" y1="275.893" y2="275.893" stroke="#1F3969" stroke-linecap="round" stroke-linejoin="round" stroke-width="4"/>
      <line x1="31.561" x2="238.293" y1="283.57" y2="283.57" stroke="#1F3969" stroke-linecap="round" stroke-linejoin="round" stroke-width="4"/>
      <path stroke="#1F3969" stroke-linecap="round" stroke-linejoin="round" stroke-width="4" d="M240.211581,269.271429 L29.1630673,269.271429 C30.4101721,272.342236 31.0816901,276.180745 31.0816901,280.21118 C31.0816901,284.241615 30.4101721,287.984161 29.1630673,291.150932 L240.115649,291.150932 C238.868545,288.080124 238.197027,284.241615 238.197027,280.21118 C238.292958,276.084783 238.964476,272.342236 240.211581,269.271429 Z"/>
    </g>
    <g transform="translate(532.418 190.966)">
      <g transform="translate(2.878)">
        <polygon fill="#FFA364" fill-rule="nonzero" points="4.621 .379 14.022 .379 14.019 70.049 4.618 70.049" transform="rotate(-6.696 9.32 35.214)"/>
        <polygon fill="#2AA1FF" fill-rule="nonzero" points=".985 .666 10.387 .666 10.387 7.767 .985 7.767" transform="rotate(-6.696 5.686 4.216)"/>
        <polygon stroke="#1F3969" stroke-linecap="round" stroke-linejoin="round" stroke-width="4" points=".985 .666 10.387 .666 10.387 7.767 .985 7.767" transform="rotate(-6.696 5.686 4.216)"/>
        <polygon stroke="#1F3969" stroke-linecap="round" stroke-linejoin="round" stroke-width="4" points="4.621 .379 14.022 .379 14.019 70.049 4.618 70.049" transform="rotate(-6.696 9.32 35.214)"/>
      </g>
      <g transform="translate(21.105 12.475)">
        <polygon fill="#FF5252" fill-rule="nonzero" points="4.166 1.054 13.567 1.054 13.569 70.72 4.168 70.72" transform="rotate(6.206 8.868 35.887)"/>
        <polygon stroke="#1F3969" stroke-linecap="round" stroke-linejoin="round" stroke-width="4" points="4.166 1.054 13.567 1.054 13.569 70.72 4.168 70.72" transform="rotate(6.206 8.868 35.887)"/>
        <polygon fill="#2D425E" fill-rule="nonzero" points="7.617 1.254 17.018 1.254 17.018 8.355 7.617 8.355" transform="rotate(6.206 12.318 4.804)"/>
        <polygon stroke="#1F3969" stroke-linecap="round" stroke-linejoin="round" stroke-width="4" points="7.617 1.254 17.018 1.254 17.018 8.355 7.617 8.355" transform="rotate(6.206 12.318 4.804)"/>
      </g>
      <polygon fill="#6046F1" fill-rule="nonzero" points="44.224 106.135 6.523 106.135 .384 48.365 50.364 48.365"/>
      <polygon fill="#6046F1" fill-rule="nonzero" points=".384 48.365 .48 49.421 38.564 49.421 32.521 106.135 44.224 106.135 50.364 48.365"/>
      <polygon stroke="#1F3969" stroke-linecap="round" stroke-linejoin="round" stroke-width="4" points="44.224 106.135 6.523 106.135 .384 48.365 50.364 48.365"/>
    </g>
  </g>
</svg>
