<svg xmlns="http://www.w3.org/2000/svg" xmlns:xlink="http://www.w3.org/1999/xlink" width="1920" height="1081" viewBox="0 0 1920 1081">
  <defs>
    <rect id="home-background-a" width="1126" height="244" x="0" y=".4"/>
  </defs>
  <g fill="none" fill-rule="evenodd">
    <path fill="#111" fill-opacity=".02" d="M0,1080 C783.292129,890.537896 1423.29213,530.537896 1920,0 L1920,1080 L0,1080 Z"/>
    <g transform="translate(0 835.6)">
      <mask id="home-background-b" fill="#fff">
        <use xlink:href="#home-background-a"/>
      </mask>
      <path fill="#F2F2F2" fill-rule="nonzero" d="M32.8,137.4 L39.8,119 L87.6,119 L94.6,137.4 L138.4,137.4 L85.6,-1.13686838e-13 L41.8,-1.13686838e-13 L-11,137.4 L32.8,137.4 Z M76.6,90.4 L50.8,90.4 L63.8,57 L76.6,90.4 Z M192.4,137.4 L192.4,84.6 L242.6,84.6 L242.6,137.4 L281.4,137.4 L281.4,-1.13686838e-13 L242.6,-1.13686838e-13 L242.6,50 L192.4,50 L192.4,-1.13686838e-13 L153.6,-1.13686838e-13 L153.6,137.4 L192.4,137.4 Z M346.6,137.4 L346.6,63.8 L383.4,129.4 L420.2,63.8 L420.2,137.4 L459,137.4 L459,-1.13686838e-13 L420.2,-1.13686838e-13 L383.4,65.6 L346.6,-1.13686838e-13 L307.8,-1.13686838e-13 L307.8,137.4 L346.6,137.4 Z M596,137.4 L596,102.8 L524.2,102.8 L524.2,84.6 L589.6,84.6 L589.6,50 L524.2,50 L524.2,34.6 L596,34.6 L596,-1.13686838e-13 L485.4,-1.13686838e-13 L485.4,137.4 L596,137.4 Z M671.2,137.4 C719.2,137.4 753.2,108.8 753.2,68.6 C753.2,28.4 719.2,-1.13686838e-13 671.2,-1.13686838e-13 L620,-1.13686838e-13 L620,137.4 L671.2,137.4 Z M677.6,102.2 L658.8,102.2 L658.8,35.2 L677.6,35.2 C698.4,35.2 713.2,49 713.2,68.6 C713.2,88.2 698.4,102.2 677.6,102.2 Z M110.8,287.4 L110.8,252.8 L39,252.8 L39,234.6 L104.4,234.6 L104.4,200 L39,200 L39,184.6 L110.8,184.6 L110.8,150 L0.2,150 L0.2,287.4 L110.8,287.4 Z M237.6,287.4 L237.6,252.8 L173.6,252.8 L173.6,150 L134.8,150 L134.8,287.4 L237.6,287.4 Z M310.2,289.8 C344.6,289.8 366.8,272.8 366.8,243.8 C366.8,217.6 346.8,209 314.8,202.2 C295.2,198 290.4,195.8 290.4,188.8 C290.4,183.6 295,179.8 304.4,179.8 C316.8,179.8 330.8,184.4 343.6,193.6 L363,166.2 C347.8,154 329.2,147.6 305.4,147.6 C272.8,147.6 251.2,165.4 251.2,192.8 C251.2,221.4 274.2,229.2 304,236 C323,240.4 327.8,241.4 327.8,248 C327.8,254 322.2,257.6 311.6,257.6 C295.4,257.6 280.2,251.8 266.2,240.8 L244.6,266.6 C262,282 285.4,289.8 310.2,289.8 Z M417.2,287.4 L424.2,269 L472,269 L479,287.4 L522.8,287.4 L470,150 L426.2,150 L373.4,287.4 L417.2,287.4 Z M461,240.4 L435.2,240.4 L448.2,207 L461,240.4 Z M576.8,287.4 L576.8,251 L591,235.4 L626.4,287.4 L672.8,287.4 L618,207.4 L668.8,150 L623,150 L576.8,204.2 L576.8,150 L538,150 L538,287.4 L576.8,287.4 Z M720.6,287.4 L727.6,269 L775.4,269 L782.4,287.4 L826.2,287.4 L773.4,150 L729.6,150 L676.8,287.4 L720.6,287.4 Z M764.4,240.4 L738.6,240.4 L751.6,207 L764.4,240.4 Z M874,287.4 L881,269 L928.8,269 L935.8,287.4 L979.6,287.4 L926.8,150 L883,150 L830.2,287.4 L874,287.4 Z M917.8,240.4 L892,240.4 L905,207 L917.8,240.4 Z M1033.6,287.4 L1033.6,213.8 L1087.2,287.4 L1126,287.4 L1126,150 L1087.2,150 L1087.2,223.6 L1033.6,150 L994.8,150 L994.8,287.4 L1033.6,287.4 Z" mask="url(#home-background-b)"/>
    </g>
  </g>
</svg>
